<?xml version="1.0" encoding="UTF-8"?>
<!DOCTYPE svg PUBLIC "-//W3C//DTD SVG 1.1//EN" "http://www.w3.org/Graphics/SVG/1.1/DTD/svg11.dtd">
<!-- Creator: CorelDRAW -->
<svg xmlns="http://www.w3.org/2000/svg" xml:space="preserve" width="12.3629in" height="10.155in" version="1.1" style="shape-rendering:geometricPrecision; text-rendering:geometricPrecision; image-rendering:optimizeQuality; fill-rule:evenodd; clip-rule:evenodd"
viewBox="0 0 5035.17 4135.91"
 xmlns:xlink="http://www.w3.org/1999/xlink"
 xmlns:xodm="http://www.corel.com/coreldraw/odm/2003">
 <defs>
  <style type="text/css">
   <![CDATA[
    .str1 {stroke:black;stroke-width:2.83;stroke-miterlimit:2.61313}
    .str0 {stroke:#21140C;stroke-width:2.83;stroke-miterlimit:2.61313}
    .fil0 {fill:#30B0BB}
   ]]>
  </style>
 </defs>
 <g id="Layer_x0020_1">
  <metadata id="CorelCorpID_0Corel-Layer"/>
  <path class="fil0 str0" d="M627.36 27.61c7.13,10.47 12.63,15.86 54.6,41.84 41.96,25.98 120.39,72.54 191.41,119.87 71.02,47.33 134.63,95.42 168.76,121.23 34.13,25.81 38.79,29.33 40.33,34.01 1.55,4.69 -0.02,10.54 -1.28,15.28 -1.26,4.74 -2.23,8.35 -29.06,2.34 -26.83,-6.01 -79.53,-21.66 -143.7,-20.8 -64.17,0.85 -139.82,18.21 -194.15,21.47 -54.33,3.26 -87.35,-7.57 -90.44,1.04 -3.09,8.62 23.76,36.69 57.08,62.41 33.32,25.72 73.1,49.09 116.35,65.03 43.25,15.94 89.95,24.47 145.71,27.21 55.75,2.73 120.55,-0.32 152.86,-5.25 32.31,-4.93 32.13,-11.74 36.91,-10.71 4.78,1.03 14.54,9.89 16.03,25.4 1.49,15.51 -5.28,37.66 -12.14,56.95 -6.86,19.29 -13.81,35.71 -14.75,51.81 -0.95,16.1 4.11,31.89 -2.53,53.36 -6.63,21.47 -24.94,48.63 -53.7,80.16 -28.75,31.54 -67.94,67.45 -124.46,117.02 -56.52,49.57 -130.37,112.81 -178.03,162.74 -47.66,49.93 -69.13,86.56 -79.24,131.4 -10.11,44.84 -8.84,97.89 -3.47,148.72 5.37,50.84 14.84,99.46 19.89,134.51 5.05,35.05 5.68,56.52 1.58,60.94 -4.1,4.42 -12.94,-8.21 -25.99,-25.88 -13.04,-17.67 -30.29,-40.39 -35.13,-52.22 -4.84,-11.83 2.72,-12.77 8.19,-27.94 5.46,-15.17 8.83,-44.55 8.93,-73.45 0.1,-28.9 -3.05,-57.32 -15.45,-85.79 -12.4,-28.47 -34.03,-57 -43.59,-78.51 -9.56,-21.51 -7.04,-36.01 -12.32,-33.11 -5.29,2.9 -18.38,23.18 -26.19,55.43 -7.81,32.25 -10.34,76.46 -11.28,102.03 -0.95,25.58 -0.32,32.52 -35.67,0.43 -35.35,-32.09 -106.7,-103.21 -144.61,-135.93 -37.91,-32.71 -42.4,-27.02 -44.3,-15.14 -1.9,11.88 -1.23,29.95 13.64,53.5 14.86,23.56 43.91,52.61 76.12,82.6 32.21,30 67.57,60.94 76.73,75.46 9.16,14.53 -7.89,12.63 -27.47,12 -19.58,-0.63 -41.68,0 -62.84,8.53 -21.15,8.53 -41.36,24.95 -72.34,42.17 -30.97,17.22 -72.71,35.25 -71.13,44.09 1.58,8.84 46.47,8.5 83.35,18.12 36.88,9.62 65.74,29.21 99.53,38.05 33.79,8.84 72.5,6.94 97.14,2.81 24.64,-4.13 35.22,-10.47 43.12,-15.21 7.89,-4.74 13.1,-7.86 16.49,-8.17 3.38,-0.31 4.94,2.2 23.13,26.7 18.19,24.5 53.02,70.99 85.4,110.15 32.38,39.16 62.3,71 83.57,97.65 21.28,26.65 33.91,48.13 44.33,68.65 10.42,20.53 18.63,40.1 26.21,63.47 7.58,23.37 14.52,50.52 6.63,85.57 -7.89,35.05 -30.63,77.99 -59.04,110.52 -28.42,32.52 -62.52,54.63 -125.7,82.37 -63.18,27.74 -155.43,61.12 -215.65,84.26 -60.23,23.14 -88.42,36.05 -111.45,56.94 -23.03,20.89 -40.88,49.75 -51.69,56.29 -10.82,6.54 -14.61,-9.25 -23.1,-29.65 -8.49,-20.4 -21.68,-45.42 -39.61,-59.19 -17.93,-13.77 -40.6,-16.29 -44.69,-12.04 -4.09,4.25 10.39,15.27 20.74,32.2 10.35,16.93 16.57,39.76 15.26,74.54 -1.31,34.78 -10.15,81.52 -16.46,115.93 -6.31,34.42 -10.11,56.52 0.31,84.31 10.42,27.79 35.05,61.26 59.36,86.83 24.31,25.58 48.31,43.26 46.28,52.32 -2.03,9.07 -30.07,9.51 -53.54,13.35 -23.47,3.84 -42.36,11.08 -65.92,26.65 -23.55,15.57 -51.76,39.45 -67.76,54.24 -16,14.79 -19.79,20.47 -15.37,27.1 4.42,6.63 17.05,14.21 37.26,20.52 20.21,6.32 47.99,11.37 77.04,3.32 29.04,-8.05 59.33,-29.2 84.28,-37.41 24.94,-8.21 44.54,-3.48 63.5,-4.58 18.95,-1.1 37.27,-8.05 48.53,-12.37 11.26,-4.32 15.46,-6.01 20.81,-3.49 5.34,2.52 11.83,9.25 23.12,34.22 11.29,24.98 27.38,68.2 38.14,88.11 10.76,19.9 16.19,16.47 22.37,13.81 6.19,-2.66 13.13,-4.56 10.61,-21.61 -2.53,-17.05 -14.53,-49.26 -26.6,-79.2 -12.08,-29.94 -24.23,-57.63 -45.07,-80.37 -20.84,-22.73 -50.37,-40.52 -58.19,-49.73 -7.82,-9.21 6.08,-9.84 21.55,-15.21 15.47,-5.37 32.52,-15.47 54.62,-35.36 22.1,-19.89 49.26,-49.57 74.83,-70.5 25.57,-20.93 49.55,-33.11 69.93,-43.45 20.37,-10.35 37.14,-18.86 32.35,-26.71 -4.79,-7.85 -31.14,-15.04 -63.21,-14.11 -32.07,0.93 -69.86,9.98 -103.59,17.92 -33.72,7.94 -63.38,14.77 -84.52,29.24 -21.14,14.47 -33.77,36.57 -43.56,56.46 -9.79,19.89 -16.74,37.57 -31.89,35.05 -15.16,-2.53 -38.52,-25.26 -53.65,-50.51 -15.13,-25.25 -22.02,-53.02 -16.02,-87.12 6,-34.1 24.89,-74.54 75.75,-114.83 50.87,-40.3 133.71,-80.45 198.5,-106.13 64.79,-25.68 111.53,-36.88 151.71,-53.89 40.18,-17.01 73.79,-39.82 104.04,-63.4 30.25,-23.58 57.13,-47.93 79.42,-73.68 22.28,-25.75 39.97,-52.91 46.6,-95.22 6.63,-42.31 2.21,-99.78 -17.68,-150.93 -19.89,-51.15 -55.26,-95.99 -77.21,-141.73 -21.95,-45.74 -30.48,-92.39 -36.2,-122.87 -5.72,-30.48 -8.63,-44.79 -7.6,-52.17 1.03,-7.38 5.99,-7.82 50.69,-11.82 44.69,-3.99 129.11,-11.54 182.99,-44.07 53.88,-32.53 77.21,-90.06 97.22,-146.3 20,-56.24 36.68,-111.2 42.56,-138.9 5.88,-27.7 0.97,-28.14 -16.18,-23.31 -17.15,4.84 -46.53,14.95 -82.84,20 -36.31,5.05 -79.56,5.04 -132.32,27.91 -52.76,22.86 -115.04,68.6 -146.62,105.54 -31.58,36.94 -32.46,65.08 -35.9,58.58 -3.45,-6.5 -9.46,-47.64 -11.99,-81.14 -2.53,-33.5 -1.57,-59.37 9.81,-93.79 11.38,-34.42 33.18,-77.39 84.33,-131.66 51.16,-54.27 131.67,-119.84 194.74,-158.25 63.06,-38.41 108.68,-49.66 144.9,-50.16 36.22,-0.5 63.04,9.74 83.61,24.18 20.57,14.43 34.89,33.05 40.35,32.28 5.46,-0.76 2.07,-20.9 -9.74,-38.87 -11.8,-17.96 -32.01,-33.75 -56.32,-43.22 -24.31,-9.47 -52.73,-12.63 -76.93,-10.72 -24.2,1.91 -44.19,8.88 -57.76,13.61 -13.58,4.74 -20.75,7.24 -14.86,0.59 5.89,-6.64 24.83,-22.43 45.36,-49.27 20.52,-26.84 42.63,-64.73 52.41,-90.75 9.78,-26.02 7.26,-40.17 6.98,-46.8 -0.28,-6.63 1.69,-5.75 4.53,-4.48 2.84,1.27 6.54,2.93 21.96,9.84 15.42,6.91 42.57,19.06 80.36,17.84 37.78,-1.22 86.21,-15.82 125.64,-20.47 39.44,-4.65 69.89,0.64 75.69,-5.92 5.79,-6.55 -13.07,-24.95 -31.68,-42.1 -18.62,-17.15 -36.99,-33.04 -58.14,-46.3 -21.15,-13.26 -45.1,-23.89 -70.33,-32.36 -25.23,-8.47 -51.76,-14.79 -74.46,-15.13 -22.71,-0.35 -41.59,5.28 -51.26,7.38 -9.67,2.1 -10.14,0.68 -10.87,-1.55 -0.73,-2.23 -1.73,-5.27 -2.62,-7.99 -0.89,-2.72 -1.68,-5.11 14.5,-11.05 16.17,-5.95 49.3,-15.46 80.94,-34.3 31.63,-18.84 61.77,-47.01 90.56,-106.42 28.79,-59.4 56.22,-150.03 71.95,-211.73 15.73,-61.7 19.75,-94.46 11.42,-90.78 -8.33,3.67 -29,43.78 -52.08,66.04 -23.07,22.26 -48.55,26.67 -88.64,48.34 -40.09,21.67 -94.81,60.59 -124.34,93.59 -29.53,32.99 -33.87,60.06 -39.55,70.71 -5.68,10.66 -12.7,4.91 -20.03,0.97 -7.33,-3.93 -14.98,-6.04 -44.63,-30.02 -29.65,-23.97 -81.3,-69.81 -145.47,-116.24 -64.18,-46.44 -140.88,-93.48 -200.18,-124.61 -59.3,-31.13 -101.2,-46.35 -117.76,-46.18 -16.57,0.17 -7.81,15.72 -0.67,26.2z"/>
  <path class="fil0 str1" d="M469.49 3323.03c-12.98,11.48 -29.1,52.58 -37.96,75.16 -8.86,22.58 -10.45,26.63 -11.82,27.2 -1.38,0.57 -2.54,-2.35 -6.38,-10.01 -3.83,-7.66 -10.34,-20.05 -31.41,-43.08 -21.07,-23.02 -56.7,-56.68 -100.95,-80.85 -44.26,-24.18 -97.14,-38.88 -147.98,-42.79 -50.84,-3.91 -99.63,2.97 -103.54,19.08 -3.9,16.11 37.09,41.44 62.75,67.69 25.65,26.26 35.95,53.44 67.14,74.1 31.19,20.65 83.26,34.78 127.12,40.85 43.86,6.07 79.51,4.08 96.05,4.57 16.53,0.49 13.96,3.46 11.96,5.77 -2.01,2.31 -3.44,3.97 -7.82,9.85 -4.38,5.87 -11.7,15.96 -26.24,36.83 -14.55,20.88 -36.32,52.55 -53.33,92.3 -17.01,39.75 -29.25,87.58 -30.95,128.44 -1.7,40.86 7.15,74.76 9.64,89.98 2.49,15.22 -1.38,11.78 -9.16,4.85 -7.78,-6.93 -19.46,-17.34 -35.05,-28.48 -15.6,-11.14 -35.11,-23.02 -69.46,-30.33 -34.35,-7.32 -83.54,-10.07 -119.05,-5.74 -35.52,4.33 -57.37,15.74 -50.32,43.58 7.04,27.84 42.98,72.11 73.82,99.93 30.85,27.82 56.61,39.18 84.26,44.49 27.65,5.3 57.2,4.55 79.58,0.46 22.38,-4.09 37.6,-11.51 47.17,-16.18 9.57,-4.67 13.5,-6.59 18.84,-3.89 5.34,2.7 12.09,10.03 17.67,15.46 5.58,5.43 9.99,8.96 22.81,23.22 12.81,14.27 34.03,39.27 54.16,59.48 20.13,20.21 39.18,35.64 52.24,37.15 13.06,1.51 20.14,-10.9 20.07,-20.03 -0.07,-9.13 -7.28,-15 -12.03,-18.98 -4.75,-3.97 -7.05,-6.05 -1.35,-6.14 5.7,-0.09 19.39,1.8 31.15,4.65 11.77,2.84 21.62,6.63 40.18,12.69 18.56,6.06 45.84,14.4 72.35,17.43 26.52,3.03 52.28,0.76 76.53,-5.3 24.24,-6.06 46.97,-15.91 68.19,-20.84 21.21,-4.92 40.91,-4.92 73.87,-4.92 32.96,0 79.17,0 117.06,-6.06 37.88,-6.06 67.43,-18.18 71.98,-21.97 4.54,-3.79 -15.91,0.76 -39.78,1.14 -23.87,0.38 -51.14,-3.41 -84.86,-13.64 -33.71,-10.23 -73.87,-26.9 -107.21,-42.43 -33.34,-15.53 -59.86,-29.92 -84.86,-39.02 -25,-9.09 -48.49,-12.88 -80.25,-14.82 -31.76,-1.94 -71.78,-2.02 -101.48,12.71 -29.71,14.73 -49.09,44.27 -58.68,62.21 -9.59,17.94 -9.38,24.27 -10.86,25.96 -1.48,1.69 -4.66,-1.27 -15.22,-17.27 -10.56,-16 -28.5,-45.05 -42.39,-70.18 -13.89,-25.13 -23.74,-46.34 -30.94,-72.86 -7.2,-26.52 -11.74,-58.34 -12.12,-95.09 -0.38,-36.75 3.41,-78.41 16.61,-116.83 13.2,-38.41 35.82,-73.57 48.68,-92.23 12.86,-18.66 15.95,-20.83 17.9,-22.19 1.95,-1.36 2.75,-1.93 26.75,10.28 24,12.21 71.19,37.18 119.3,58.02 48.11,20.84 97.14,37.53 144.41,45.15 47.27,7.62 92.77,6.17 124.58,5.15 31.8,-1.01 49.9,-1.59 56.83,-4.65 6.93,-3.06 2.68,-8.6 -5.26,-18.95 -7.94,-10.35 -19.56,-25.51 -36.74,-44.45 -17.18,-18.94 -39.91,-41.67 -65.79,-58.69 -25.88,-17.02 -54.91,-28.33 -89.76,-37.8 -34.85,-9.47 -75.53,-17.1 -118.19,-17.94 -42.66,-0.84 -87.3,5.12 -110.03,8.15 -22.73,3.03 -23.55,3.14 -23,2.01 0.55,-1.12 2.45,-3.48 8.89,-11.44 6.44,-7.96 17.41,-21.51 25.55,-36.62 8.14,-15.11 13.44,-31.78 11.18,-49.19 -2.26,-17.41 -12.1,-35.57 -25.08,-24.09z"/>
  <path class="fil0 str1" d="M1689.03 3781.84c6.03,-20.98 -1.09,-49.33 20.1,-68.84 21.19,-19.51 70.69,-30.18 116.07,-55.43 45.37,-25.25 86.62,-65.08 104.3,-115.99 17.67,-50.91 11.78,-112.9 -2,-161.8 -13.79,-48.9 -35.47,-84.73 -50.48,-92.68 -15.02,-7.96 -23.36,11.95 -40.6,37.24 -17.24,25.29 -43.36,55.96 -68.35,77.54 -24.99,21.58 -48.84,34.08 -65.01,57.07 -16.17,23 -24.65,56.49 -29.73,76.55 -5.08,20.06 -6.76,26.68 -8.67,27.35 -1.92,0.67 -4.07,-4.63 -22.27,-32.07 -18.21,-27.44 -52.46,-77.04 -72.26,-110.52 -19.8,-33.48 -25.14,-50.86 -28.65,-62.29 -3.51,-11.42 -5.19,-16.9 -4.63,-19.2 0.56,-2.3 3.37,-1.43 18.24,3.18 14.87,4.61 41.8,12.96 83.22,17.17 41.42,4.2 97.33,4.27 132.9,-25.59 35.57,-29.86 50.8,-89.63 67.14,-123.73 16.34,-34.11 33.8,-42.54 49.98,-48.52 16.18,-5.98 31.09,-9.49 24.91,-22.25 -6.18,-12.76 -33.45,-34.77 -74.47,-40.61 -41.02,-5.84 -95.78,4.5 -133.62,16.42 -37.84,11.92 -58.76,25.44 -24.06,-5.59 34.7,-31.02 125.02,-106.58 179.74,-154.93 54.72,-48.35 73.84,-69.49 84.64,-81.42 10.79,-11.92 13.24,-14.64 17.17,-18.28 3.92,-3.64 9.3,-8.22 23.5,-8.22 14.2,0 37.21,4.58 62.35,5.16 25.14,0.58 52.39,-2.82 79.09,-10.21 26.69,-7.38 52.81,-18.74 74.48,-31.14 21.67,-12.4 38.88,-25.83 64.52,-32.55 25.64,-6.72 59.71,-6.72 64.74,-17.6 5.03,-10.89 -19,-32.66 -48.61,-47.53 -29.62,-14.86 -64.83,-22.81 -101.49,-22.28 -36.67,0.54 -74.79,9.57 -96.37,14.68 -21.58,5.11 -26.62,6.3 -27.56,5.19 -0.93,-1.12 2.25,-4.55 16.44,-19.89 14.2,-15.33 39.42,-42.57 37.83,-59.03 -1.59,-16.46 -29.99,-22.13 -53.27,-12.48 -23.28,9.66 -41.46,34.64 -65.88,66.45 -24.42,31.8 -55.09,70.42 -92,114.15 -36.91,43.73 -80.08,92.57 -139.28,150.94 -59.21,58.37 -134.46,126.28 -182.16,181.22 -47.71,54.94 -67.88,96.91 -78.94,119.93 -11.06,23.02 -13.02,27.09 -16.32,25.66 -3.3,-1.43 -7.94,-8.35 -14.91,-18.76 -6.97,-10.4 -16.27,-24.28 -33.41,-50.53 -17.14,-26.25 -42.13,-64.87 -76.21,-130.18 -34.08,-65.31 -77.24,-157.31 -99.79,-211.1 -22.56,-53.78 -24.5,-69.35 -25.64,-78.44 -1.14,-9.09 -1.46,-11.69 -0.15,-13 1.31,-1.3 4.27,-1.3 12.22,-1.3 7.95,0 20.9,0 58.61,5.68 37.71,5.68 100.18,17.04 160.38,18.74 60.2,1.7 118.13,-6.25 168.03,-27.92 49.9,-21.68 91.78,-57.08 104.91,-76.37 13.12,-19.29 -2.5,-22.46 -27.23,-27.48 -24.73,-5.02 -58.55,-11.88 -87.58,-27.24 -29.03,-15.35 -53.26,-39.2 -83.55,-51.12 -30.29,-11.92 -66.63,-11.92 -112.63,2.28 -46,14.2 -101.66,42.59 -137.44,62.47 -35.78,19.88 -51.68,31.23 -59.55,35.22 -7.86,3.99 -7.7,0.62 -7.13,-10.74 0.57,-11.36 1.53,-30.7 17.92,-72.18 16.39,-41.47 48.19,-105.08 91.5,-172.66 43.32,-67.58 98.15,-139.14 165.16,-218.08 67.01,-78.94 146.21,-165.26 215.32,-233.11 69.11,-67.84 128.13,-117.2 159.36,-143.33 31.23,-26.12 34.69,-29.01 40.38,-27.28 5.69,1.73 13.62,8.07 22.14,14.89 8.52,6.82 17.63,14.1 37.83,22.89 20.2,8.79 51.5,19.08 85.68,20.07 34.18,0.99 71.23,-7.31 103.86,-22.11 32.62,-14.8 60.81,-36.1 89.09,-56.43 28.27,-20.34 56.63,-39.72 54.11,-50.66 -2.52,-10.94 -35.92,-13.44 -61.91,-22.16 -25.99,-8.72 -44.57,-23.67 -72.6,-34.33 -28.03,-10.66 -65.5,-17.03 -96.43,-16.35 -30.93,0.68 -55.31,8.42 -69.07,12.78 -13.76,4.37 -16.91,5.36 -16.74,2.55 0.16,-2.82 3.62,-9.45 11.62,-33.46 8,-24.01 20.56,-65.41 30.2,-128.92 9.64,-63.5 16.38,-149.11 34.36,-230.2 17.98,-81.08 47.22,-157.64 34.98,-204.54 -12.23,-46.9 -65.93,-64.13 -113.9,-74.13 -47.97,-10 -90.22,-12.76 -124.58,-11.24 -34.36,1.52 -60.84,7.33 -104.71,20.4 -43.88,13.07 -105.17,33.39 -145.47,65.13 -40.3,31.74 -59.61,74.91 -65.85,102.17 -6.25,27.26 0.57,38.62 13.86,27.78 13.29,-10.83 33.05,-43.86 64.43,-69.08 31.37,-25.22 74.36,-42.63 141.96,-53.34 67.61,-10.71 159.84,-14.71 199.46,21.86 39.62,36.58 26.61,113.74 12.16,188.67 -14.45,74.93 -30.35,147.62 -39.25,201.55 -8.9,53.93 -10.8,89.09 -11.94,110.1 -1.14,21.01 -1.51,27.88 -7.37,14.84 -5.87,-13.04 -17.22,-45.98 -29.15,-72.1 -11.93,-26.13 -24.42,-45.43 -28.4,-72.13 -3.97,-26.69 0.57,-60.76 1.9,-106.02 1.32,-45.26 -0.57,-101.7 -15.96,-140.84 -15.39,-39.14 -44.28,-60.96 -55.26,-63.41 -10.98,-2.45 -4.05,14.49 5.74,33.11 9.79,18.62 22.44,38.92 23.58,67.88 1.14,28.96 -9.24,66.59 -13.87,105.85 -4.62,39.26 -3.49,80.15 2.76,113.66 6.25,33.51 17.6,59.63 27.26,85.76 9.65,26.13 17.6,52.25 18.17,70.42 0.57,18.17 -6.25,28.4 -15.31,39.89 -9.06,11.49 -20.37,24.26 -24.07,41.28 -3.7,17.03 0.2,38.31 -7.78,56.34 -7.98,18.04 -27.83,32.83 -62.15,59.43 -34.32,26.6 -83.09,65.01 -142.73,123.34 -59.63,58.33 -130.13,136.58 -188.09,208.81 -57.96,72.23 -103.39,138.44 -140.3,197.1 -36.91,58.66 -65.31,109.77 -84.1,159.67 -18.79,49.9 -27.98,98.6 -33.24,126.54 -5.26,27.94 -6.6,35.13 -12.23,32.36 -5.63,-2.77 -15.55,-15.48 -29.6,-38.32 -14.05,-22.83 -32.22,-55.77 -57.46,-91.74 -25.24,-35.97 -57.54,-74.97 -85.53,-99.88 -27.99,-24.92 -51.68,-35.75 -75.55,-42.38 -23.87,-6.63 -47.93,-9.06 -76.06,-11.8 -28.13,-2.75 -60.31,-5.8 -63.77,5.47 -3.46,11.27 21.81,36.87 34.35,69.64 12.54,32.77 12.36,72.71 44.86,115.6 32.5,42.88 97.7,88.7 154.39,116.37 56.69,27.67 104.88,37.19 130.29,42.21 25.42,5.02 28.07,5.55 35.04,26.52 6.97,20.97 18.27,62.39 39.04,111.13 20.77,48.74 51.02,104.79 76.93,157.8 25.91,53.02 47.5,102.99 73.62,146.15 26.12,43.16 56.79,79.51 73.26,105.63 16.47,26.12 18.74,42.03 21.58,55.09 2.84,13.06 6.25,23.29 19.36,46.78 13.11,23.5 35.92,60.27 49.19,81.64 13.26,21.38 16.97,27.36 5.99,22.68 -10.98,-4.68 -36.66,-20.02 -84.36,-34.27 -47.7,-14.24 -117.42,-27.38 -176.76,-32.23 -59.35,-4.85 -108.32,-1.42 -124.64,4.44 -16.33,5.87 -0.01,14.17 10.64,31.45 10.65,17.27 15.63,43.51 38,73.82 22.37,30.31 62.12,64.68 103.91,85.48 41.79,20.81 85.61,28.05 140.13,35.29 54.52,7.23 119.74,14.47 156.35,19.46 36.61,4.99 44.61,7.75 50.39,24.76 5.79,17.01 9.36,48.26 11.67,68.45 2.31,20.19 3.35,29.33 13.47,27.09 10.11,-2.24 29.3,-15.85 35.33,-36.83z"/>
  <path class="fil0 str1" d="M2449.69 752.32c11.73,2.63 20.9,-1.94 29.62,-19.29 8.72,-17.35 16.99,-47.48 22.51,-79.73 5.51,-32.25 8.27,-66.63 25.11,-100.74 16.83,-34.11 47.74,-67.96 67.28,-103.02 19.54,-35.06 27.71,-71.34 25.8,-85.63 -1.91,-14.29 -13.91,-6.59 -29.51,10.81 -15.6,17.4 -34.81,44.49 -54.46,70.15 -19.65,25.66 -39.73,49.89 -52.64,57.13 -12.9,7.24 -18.63,-2.51 -24.34,-17.58 -5.7,-15.07 -11.39,-35.47 -25.81,-64.87 -14.43,-29.41 -37.61,-67.82 -54.12,-74.97 -16.51,-7.14 -26.36,16.99 -21.19,45.07 5.17,28.07 25.36,60.09 41.88,81.56 16.51,21.48 29.35,32.41 30.33,73.78 0.99,41.37 -9.88,113.18 -8.17,154.01 1.71,40.83 15.99,50.68 27.72,53.32z"/>
  <path class="fil0 str1" d="M3570.34 229.71c-16.44,7.86 -28.34,26.56 -34.29,75.32 -5.95,48.76 -5.95,127.59 -5.95,171.57 0,43.98 0,53.11 -7.22,48.54 -7.22,-4.58 -21.67,-22.87 -63.73,-56.11 -42.06,-33.24 -111.73,-81.43 -167.38,-115.84 -55.65,-34.41 -97.29,-55.05 -129.58,-61.11 -32.29,-6.07 -55.23,2.43 -83.65,19.51 -28.42,17.08 -62.33,42.73 -43.83,43.12 18.5,0.39 89.42,-24.49 146.85,-10.19 57.44,14.31 101.4,67.8 169.98,128.17 68.59,60.37 161.81,127.6 230.94,193.5 69.13,65.9 114.16,130.48 146.8,178.98 32.64,48.5 52.89,80.93 56.71,121.72 3.82,40.79 -8.77,89.92 -38.16,133.83 -29.39,43.91 -75.56,82.6 -110.47,109.13 -34.91,26.53 -58.55,40.91 -72.85,49.6 -14.3,8.7 -19.26,11.71 -21.31,4.72 -2.05,-6.99 -1.2,-23.98 -3.33,-46.5 -2.12,-22.52 -7.22,-50.56 -22.52,-83.69 -15.29,-33.14 -40.78,-71.37 -67.97,-100.26 -27.19,-28.89 -56.08,-48.43 -92.19,-64.58 -36.11,-16.14 -79.45,-28.89 -127.45,-36.53 -48,-7.65 -100.68,-10.2 -141.04,-16.99 -40.36,-6.8 -68.4,-17.84 -84.12,-18.69 -15.72,-0.85 -19.12,8.49 -3.83,23.79 15.3,15.29 49.28,36.53 88.37,72.65 39.09,36.11 83.27,87.09 115.98,130.42 32.71,43.33 53.96,79.02 83.69,111.31 29.74,32.29 67.98,61.18 99.41,74.77 31.44,13.6 56.08,11.9 56.93,17.85 0.85,5.95 -22.09,19.54 -52.68,37.38 -30.59,17.84 -68.82,39.93 -115.13,71.8 -46.31,31.86 -100.68,73.5 -144.44,147.42 -43.76,73.92 -76.89,180.13 -92.19,252.78 -15.29,72.65 -12.74,111.73 -12.74,141.9 0,30.16 -2.55,51.41 -6.59,58.55 -4.05,7.14 -9.58,0.19 -26.15,-20.63 -16.57,-20.82 -44.17,-55.49 -82.19,-86 -38.01,-30.51 -86.44,-56.85 -136.96,-73.91 -50.51,-17.06 -103.11,-24.84 -146.06,-31.45 -42.95,-6.6 -76.25,-12.03 -82.55,-3.65 -6.3,8.38 14.4,30.56 39.29,64.32 24.89,33.76 53.97,79.11 82.32,117.53 28.35,38.42 55.97,69.92 83.37,96.71 27.4,26.79 54.59,48.88 89.43,71.83 34.84,22.94 77.32,46.73 110.88,56.5 33.56,9.77 58.2,5.52 71.04,6.15 12.84,0.63 13.87,6.13 18.96,33.32 5.1,27.19 14.26,76.07 20.97,159.14 6.71,83.07 10.96,200.32 29.56,281.46 18.6,81.14 51.56,126.16 30.74,129.98 -20.82,3.82 -95.4,-33.55 -191.48,-43.42 -96.07,-9.86 -213.63,7.79 -299.28,26.48 -85.66,18.69 -139.42,38.43 -180.27,59.2 -40.85,20.77 -68.79,42.58 -59.91,62.49 8.88,19.91 54.58,37.91 115.54,62.69 60.97,24.78 137.2,56.35 226.73,62.36 89.52,6.01 192.33,-13.53 265.7,-41.23 73.36,-27.69 117.28,-63.53 141.4,-83.22 24.12,-19.69 28.45,-23.22 36.2,-19.82 7.75,3.41 18.92,13.76 29,24.38 10.08,10.62 19.07,21.51 34.58,45.84 15.51,24.33 37.54,62.09 61.26,139.6 23.72,77.51 49.13,194.76 40.5,304.67 -8.63,109.91 -51.3,212.46 -106.11,282.54 -54.81,70.07 -121.78,107.66 -157.95,128.99 -36.16,21.33 -41.52,26.39 -45.05,20 -3.53,-6.39 -5.23,-24.23 -11.6,-47.18 -6.37,-22.94 -17.42,-50.98 -56.5,-75.62 -39.08,-24.64 -106.21,-45.88 -171.21,-56.08 -65,-10.2 -127.88,-9.35 -204.79,13.74 -76.91,23.09 -167.86,68.42 -260.01,75.81 -92.16,7.38 -185.52,-23.18 -245.33,-45.55 -59.81,-22.37 -86.07,-36.54 -89.55,-26.68 -3.48,9.86 15.82,43.74 70.81,76.16 54.99,32.43 145.66,63.4 219.01,82.23 73.35,18.83 129.39,25.51 180,43.37 50.61,17.87 95.8,46.92 152.92,62.26 57.12,15.34 126.16,16.97 182.78,14.38 56.62,-2.59 100.8,-9.39 134.5,-16.53 33.7,-7.14 56.93,-14.62 68.22,-17.27 11.29,-2.65 10.66,-0.48 9.84,2.31 -0.82,2.79 -1.81,6.19 -4.45,22.46 -2.64,16.27 -6.91,45.4 -2.95,68.79 3.97,23.38 16.18,41.02 24.49,29.66 8.31,-11.36 12.72,-51.72 20.69,-75.29 7.97,-23.57 19.5,-30.35 59.7,-55.89 40.2,-25.54 109.06,-69.83 145.8,-94.18 36.74,-24.35 41.37,-28.77 49.55,-30.12 8.18,-1.35 19.91,0.36 40.3,3.33 20.39,2.98 49.45,7.21 83.73,15.29 34.28,8.08 73.78,19.99 129.31,12.09 55.53,-7.9 127.09,-35.63 179.7,-73.97 52.62,-38.34 86.3,-87.31 110.21,-115.94 23.92,-28.63 38.07,-36.93 36.85,-45.85 -1.21,-8.92 -17.79,-18.46 -50.7,-31.04 -32.91,-12.58 -82.14,-28.2 -139.7,-31.92 -57.56,-3.72 -123.45,4.44 -168.03,14.34 -44.58,9.9 -67.86,21.54 -82.3,28.76 -14.45,7.22 -20.06,10.03 -20.74,4.63 -0.68,-5.39 3.57,-18.99 8.24,-48.3 4.67,-29.31 9.77,-74.35 10.2,-126.6 0.43,-52.26 -3.82,-111.73 -16.14,-169.09 -12.32,-57.35 -32.71,-112.58 -59.48,-167.81 -26.76,-55.23 -59.9,-110.45 -78.45,-143.65 -18.55,-33.19 -22.51,-44.36 -25.26,-52.1 -2.75,-7.74 -4.28,-12.06 8.75,-14.98 13.03,-2.92 40.61,-4.42 85.45,-4.08 44.84,0.35 106.94,2.55 187.14,-6.8 80.2,-9.35 178.52,-30.24 234.25,-58.63 55.74,-28.39 68.9,-64.27 100,-94.86 31.11,-30.59 80.16,-55.88 91.11,-75.85 10.95,-19.96 -16.19,-34.59 -50.18,-53.29 -33.99,-18.69 -74.81,-41.45 -127.09,-50.28 -52.28,-8.83 -116,-3.73 -178.88,9.44 -62.88,13.17 -124.9,34.41 -172.91,60.75 -48.01,26.34 -81.99,57.78 -115.98,84.54 -33.99,26.77 -67.98,48.86 -91.77,45.46 -23.79,-3.4 -37.38,-32.29 -53.53,-100.69 -16.14,-68.4 -34.83,-176.31 -50.13,-266.8 -15.29,-90.49 -27.19,-163.56 -29.75,-241 -2.56,-77.44 4.22,-159.25 10.59,-223.4 6.37,-64.15 12.34,-110.64 31.74,-163.86 19.39,-53.21 52.21,-113.15 83.8,-158.3 31.59,-45.15 61.96,-75.51 78.64,-84.32 16.68,-8.81 19.68,3.93 32.27,13.82 12.59,9.89 34.78,16.92 81.98,39.13 47.2,22.21 119.43,59.6 170.83,87.21 51.41,27.61 81.99,45.46 113.86,57.35 31.86,11.9 65,17.84 107.91,14.02 42.91,-3.82 95.59,-17.42 127.03,-29.74 31.44,-12.32 41.64,-23.37 40.36,-30.59 -1.27,-7.22 -14.02,-10.62 -24.64,-15.3 -10.62,-4.67 -19.12,-10.62 -39.94,-33.56 -20.82,-22.94 -53.95,-62.88 -86.24,-95.59 -32.29,-32.71 -63.72,-58.2 -95.16,-75.2 -31.44,-16.99 -62.88,-25.49 -97.29,-32.71 -34.41,-7.22 -71.8,-13.17 -85.23,-19.49 -13.43,-6.33 -2.91,-13.03 30.88,-34.57 33.79,-21.54 90.86,-57.92 145.08,-107.25 54.22,-49.33 105.58,-111.6 128.11,-170.48 22.53,-58.87 16.22,-114.34 -18.64,-184.56 -34.86,-70.22 -98.27,-155.19 -139.51,-210.06 -41.24,-54.87 -60.32,-79.63 -76.45,-125.6 -16.13,-45.97 -29.33,-113.15 -27.54,-169.26 1.79,-56.11 18.56,-101.17 16.45,-125.17 -2.11,-24.01 -23.1,-26.97 -39.55,-19.1z"/>
  <path class="fil0 str1" d="M4682.07 1912.38c-10.36,12.32 8.08,48.52 9.46,89.49 1.38,40.97 -14.29,86.72 -32.06,136.53 -17.76,49.81 -37.61,103.68 -34.68,156.91 2.93,53.23 28.63,105.82 51.37,143.6 22.74,37.78 42.5,60.75 46.84,66.92 4.33,6.17 -6.77,-4.45 -39.54,-14.38 -32.77,-9.94 -87.22,-19.19 -132.81,-19.83 -45.58,-0.63 -82.31,7.36 -127.38,24.89 -45.07,17.53 -98.49,44.61 -114.73,58.39 -16.24,13.78 4.69,14.27 25.03,17.38 20.34,3.11 40.08,8.84 92.65,25.23 52.57,16.39 137.97,43.44 194.21,54.5 56.24,11.06 83.34,6.13 105.61,-9.97 22.28,-16.1 39.73,-43.38 47.06,-56.24 7.32,-12.85 4.51,-11.29 6.86,-5.65 2.36,5.63 9.87,15.34 16.41,33.68 6.54,18.35 12.1,45.33 0.4,69.96 -11.7,24.63 -40.66,46.9 -79.77,67.27 -39.11,20.37 -88.36,38.84 -132.54,53 -44.18,14.16 -83.3,24.01 -127.63,58.49 -44.33,34.48 -93.88,93.59 -123.37,147.29 -29.49,53.7 -38.91,102 -43.84,127.24 -4.93,25.24 -5.35,27.44 -14.8,22.99 -9.45,-4.44 -27.92,-15.53 -58.7,-22.3 -30.78,-6.77 -73.88,-9.24 -115.14,-3.7 -41.25,5.54 -80.66,19.09 -119.98,38.82 -39.32,19.73 -78.56,45.65 -77.94,54.97 0.62,9.32 41.1,2.03 77.96,13.7 36.86,11.67 70.1,42.29 104.57,60.07 34.48,17.77 70.19,22.7 97.4,20.6 27.22,-2.1 45.94,-11.24 57.21,-16.73 11.27,-5.49 15.08,-7.36 8.68,0.6 -6.4,7.95 -23.02,25.72 -35.52,42.91 -12.5,17.2 -20.88,33.82 -37.38,62.45 -16.5,28.63 -41.13,69.27 -56.53,109.9 -15.39,40.64 -21.55,81.28 -21.8,124.99 -0.25,43.72 5.4,90.51 8.48,115.99 3.08,25.48 3.58,29.64 0.49,31.4 -3.09,1.76 -9.78,1.1 -22.29,-1.9 -12.51,-3.01 -30.85,-8.37 -77.46,2.85 -46.61,11.23 -121.51,39.05 -172.87,81.83 -51.35,42.79 -79.17,100.55 -112.77,138.2 -33.59,37.66 -72.97,55.23 -75.69,65.28 -2.72,10.04 31.21,12.56 70.15,-3.27 38.94,-15.83 82.91,-50.02 122.65,-66.69 39.74,-16.67 75.26,-15.81 100.94,-8.76 25.68,7.05 41.52,20.3 69.59,20.77 28.08,0.47 68.4,-11.82 88.85,-15.69 20.45,-3.86 21.02,0.72 22.11,9.37 1.09,8.65 2.69,21.36 3.64,28.85 0.94,7.48 1.23,9.74 -5.56,12.11 -6.79,2.37 -20.65,4.86 -43.84,1.23 -23.19,-3.62 -55.71,-13.36 -83.85,-18.23 -28.14,-4.87 -51.89,-4.87 -69.33,-1.73 -17.43,3.14 -28.53,9.42 -16.54,14.23 11.99,4.8 47.07,8.13 70.39,14.46 23.31,6.33 34.86,15.65 55.17,23.09 20.32,7.44 49.4,12.99 66.24,18.28 16.84,5.29 21.43,10.32 30.53,16.27 9.11,5.95 22.73,12.81 31.91,9.26 9.18,-3.54 13.92,-17.49 21.12,-25.88 7.2,-8.38 16.84,-11.21 24.13,-15.84 7.29,-4.63 12.21,-11.07 26.11,-19.28 13.9,-8.21 36.77,-18.21 61.97,-17.32 25.2,0.89 52.73,12.66 60.73,12.43 7.99,-0.22 -3.55,-12.43 -15,-22.61 -11.45,-10.17 -22.8,-18.31 -38.53,-23.36 -15.73,-5.05 -35.82,-7.02 -54.73,-3.78 -18.92,3.23 -36.65,11.67 -46.83,16.5 -10.18,4.84 -12.79,6.08 -13.96,4.66 -1.17,-1.42 -0.88,-5.51 0.61,-26.41 1.5,-20.9 4.2,-58.6 1.51,-101.16 -2.7,-42.56 -10.8,-89.96 -16.28,-147.79 -5.48,-57.82 -8.34,-126.07 0.08,-179.28 8.42,-53.21 28.12,-91.38 53.98,-133.25 25.86,-41.87 57.88,-87.43 75.47,-110.4 17.6,-22.98 20.77,-23.37 50.94,-27.06 30.17,-3.69 87.33,-10.69 134.95,-38.34 47.61,-27.65 85.68,-75.94 124.53,-97.34 38.85,-21.4 78.49,-15.92 86.47,-21.65 7.98,-5.74 -15.71,-22.69 -39.78,-38.84 -24.08,-16.15 -48.54,-31.51 -82.33,-36.11 -33.78,-4.6 -76.88,1.56 -110.75,15.72 -33.86,14.16 -58.49,36.33 -79.01,59.62 -20.51,23.3 -36.92,47.73 -44.13,52.96 -7.21,5.23 -5.22,-8.75 -1.29,-31.16 3.93,-22.41 9.82,-53.26 35.39,-98.38 25.57,-45.12 70.83,-104.52 115.73,-144.81 44.91,-40.29 89.45,-61.48 142.45,-81.85 53,-20.37 114.46,-39.92 158.48,-68.02 44.02,-28.1 70.62,-64.75 81.04,-96.44 10.42,-31.69 4.67,-58.41 -5.13,-80.26 -9.8,-21.85 -23.65,-38.83 -32.31,-49.45 -8.65,-10.62 -12.11,-14.88 -12.29,-17.89 -0.17,-3.01 2.94,-4.75 11.08,-9.31 8.14,-4.56 21.31,-11.94 43.91,-26.72 22.59,-14.77 54.61,-36.94 84.13,-61.61 29.51,-24.67 56.53,-51.86 67.05,-88.87 10.52,-37.01 4.56,-83.85 -4.04,-117.23 -8.59,-33.38 -19.81,-53.29 -30.7,-48.74 -10.88,4.55 -21.43,33.56 -38.93,50.45 -17.5,16.9 -41.95,21.7 -77.3,46.54 -35.35,24.84 -81.6,69.73 -102.65,104.53 -21.04,34.8 -16.89,59.51 -13.19,74.59 3.71,15.07 6.96,20.51 0.54,7.35 -6.42,-13.16 -22.51,-44.93 -37.3,-72.7 -14.79,-27.77 -28.27,-51.54 -28.91,-83.2 -0.64,-31.65 11.57,-71.19 25.71,-113.35 14.14,-42.16 30.22,-86.95 42.29,-137.33 12.07,-50.38 20.13,-106.36 20.64,-131.08 0.51,-24.72 -6.54,-18.17 -29.64,-20.68 -23.1,-2.5 -62.25,-14.05 -72.61,-1.73z"/>
 </g>
</svg>
