<?xml version="1.0" encoding="UTF-8"?>
<!DOCTYPE svg PUBLIC "-//W3C//DTD SVG 1.1//EN" "http://www.w3.org/Graphics/SVG/1.1/DTD/svg11.dtd">
<!-- Creator: CorelDRAW -->
<svg xmlns="http://www.w3.org/2000/svg" xml:space="preserve" width="13.0069in" height="11.461in" version="1.1" style="shape-rendering:geometricPrecision; text-rendering:geometricPrecision; image-rendering:optimizeQuality; fill-rule:evenodd; clip-rule:evenodd"
viewBox="0 0 2750.16 2423.29"
 xmlns:xlink="http://www.w3.org/1999/xlink"
 xmlns:xodm="http://www.corel.com/coreldraw/odm/2003">
 <defs>
  <style type="text/css">
   <![CDATA[
    .str0 {stroke:black;stroke-width:1.47;stroke-miterlimit:2.61313}
    .fil5 {fill:#5C0049}
    .fil4 {fill:#5C0049}
    .fil6 {fill:#62093F}
    .fil10 {fill:#CCCCFF}
    .fil1 {fill:#DEBDC8}
    .fil3 {fill:#DEBDC8}
    .fil7 {fill:#E6E6E6}
    .fil8 {fill:#E6E6E6}
    .fil9 {fill:#FF6600}
    .fil2 {fill:yellow}
    .fil0 {fill:yellow}
   ]]>
  </style>
 </defs>
 <g id="Layer_x0020_1">
  <metadata id="CorelCorpID_0Corel-Layer"/>
  <g id="_105553392506752">
   <path class="fil0 str0" d="M2512.09 2056.29c-4.57,-2.24 -11.27,-4.57 -15.48,-4.01 -4.21,0.56 -5.93,4 -8.76,6.58 -2.84,2.58 -6.79,4.3 -11.01,5.5 -4.21,1.2 -8.68,1.89 -11.01,4.04 -2.32,2.15 -2.49,5.76 -4.73,7.57 -2.24,1.81 -6.53,1.81 -10.75,3.87 -4.21,2.06 -8.34,6.19 -10.4,8.26 -2.06,2.06 -2.06,2.06 -4.56,3.35 -2.49,1.29 -7.48,3.87 -10.66,7.57 -3.18,3.7 -4.56,8.51 -4.64,13.16 -0.09,4.64 1.12,9.12 -0.17,12.98 -1.29,3.87 -5.07,7.14 -5.93,10.49 -0.86,3.35 1.2,6.79 1.2,10.49 0,3.7 -2.06,7.65 -1.72,11.52 0.34,3.87 3.09,7.65 3.53,11.44 0.43,3.78 -1.46,7.57 -1.81,11.78 -0.34,4.21 0.86,8.86 4.3,13.24 3.44,4.39 9.11,8.51 14.7,13.07 5.59,4.56 11.09,9.55 14.76,17.45 3.67,7.9 5.49,18.72 4.5,24.83 -0.99,6.1 -4.8,7.49 -6.47,14.7 -1.67,7.21 -1.21,20.26 2.65,26.09 3.87,5.83 11.14,4.44 16.33,4.85 5.2,0.4 8.31,2.6 12.24,1.85 3.92,-0.75 8.66,-4.44 12.05,-5.6 3.39,-1.16 5.44,0.21 7.75,1.5 2.31,1.29 4.89,2.49 8.93,1.63 4.04,-0.86 9.54,-3.78 12.21,-3.61 2.67,0.17 2.49,3.44 3.96,7.91 1.46,4.47 4.56,10.15 9.54,15.48 4.99,5.33 11.87,10.32 17.2,12.21 5.33,1.89 9.12,0.69 11.78,-2.49 2.67,-3.18 4.21,-8.34 5.76,-11.44 1.55,-3.09 3.1,-4.13 4.82,-2.32 1.72,1.81 3.61,6.45 4.9,10.23 1.29,3.78 1.98,6.71 3.95,6.28 1.98,-0.43 5.25,-4.21 7.57,-7.65 2.32,-3.44 3.7,-6.53 5.33,-7.91 1.63,-1.38 3.53,-1.03 4.73,1.38 1.2,2.41 1.72,6.88 3.78,8.26 2.06,1.38 5.68,-0.34 7.57,-1.81 1.89,-1.46 2.06,-2.67 4.04,-2.75 1.98,-0.09 5.76,0.95 8.34,-0.95 2.58,-1.89 3.96,-6.71 4.73,-10.32 0.77,-3.61 0.95,-6.02 2.67,-5.16 1.72,0.86 4.99,4.99 9.54,6.79 4.56,1.81 10.4,1.29 12.23,-2.3 1.83,-3.59 -0.36,-10.25 1.61,-11.88 1.98,-1.63 8.13,1.76 12.92,1.13 4.79,-0.62 8.23,-5.27 9.35,-10.08 1.12,-4.81 -0.09,-9.8 0,-12.3 0.09,-2.49 1.46,-2.49 3.87,-3.78 2.41,-1.29 5.85,-3.87 6.62,-7.65 0.77,-3.78 -1.12,-8.77 -1.38,-10.75 -0.26,-1.98 1.12,-0.95 3.44,-1.98 2.32,-1.03 5.59,-4.13 7.4,-7.74 1.81,-3.61 2.15,-7.74 0.69,-11.69 -1.46,-3.95 -4.73,-7.74 -5.59,-10.32 -0.86,-2.58 0.69,-3.95 2.15,-6.36 1.46,-2.41 2.84,-5.85 1.98,-8.51 -0.86,-2.67 -3.95,-4.56 -5.76,-7.05 -1.81,-2.49 -2.32,-5.59 -1.12,-8.26 1.2,-2.66 4.13,-4.9 5.68,-8.26 1.55,-3.35 1.72,-7.82 0.43,-11.18 -1.29,-3.35 -4.04,-5.59 -6.62,-7.22 -2.58,-1.63 -4.99,-2.66 -4.47,-3.09 0.52,-0.43 3.96,-0.26 6.19,-1.63 2.24,-1.38 3.27,-4.3 3.18,-7.57 -0.09,-3.27 -1.29,-6.88 -3.35,-9.63 -2.06,-2.75 -4.99,-4.64 -4.56,-5.5 0.43,-0.86 4.21,-0.69 8.25,-2.15 4.04,-1.46 8.34,-4.56 10.23,-8.34 1.89,-3.78 1.38,-8.26 -0.23,-10.61 -1.61,-2.35 -4.31,-2.59 -6.74,-2.12 -2.42,0.47 -4.57,1.65 -6.23,-0.17 -1.66,-1.82 -2.84,-6.65 -3.86,-11.31 -1.02,-4.66 -1.87,-9.17 -5.04,-10.76 -3.16,-1.59 -8.63,-0.25 -9.12,-2.61 -0.48,-2.36 4.02,-8.41 4.35,-13.36 0.32,-4.95 -3.54,-8.81 -8.15,-11.66 -4.61,-2.84 -9.97,-4.66 -12.6,-7.67 -2.63,-3 -2.52,-7.18 -5.63,-9.6 -3.11,-2.41 -9.44,-3.06 -13.73,-1.69 -4.29,1.36 -6.55,4.73 -7.94,4.46 -1.39,-0.27 -1.93,-4.17 -3.05,-8.37 -1.12,-4.2 -2.84,-8.71 -5.79,-9.36 -2.96,-0.66 -7.15,2.53 -9.72,2.43 -2.57,-0.11 -3.53,-3.51 -6.09,-3.71 -2.57,-0.2 -6.75,2.8 -9.86,2.43 -3.11,-0.38 -5.15,-4.13 -8.2,-4.45 -3.06,-0.32 -7.13,2.79 -10.08,2.68 -2.95,-0.11 -4.77,-3.43 -7.51,-2.84 -2.73,0.59 -6.38,5.09 -10.13,6.27 -3.75,1.18 -7.61,-0.96 -9.3,1.12 -1.69,2.08 -1.21,8.39 -4.26,10.37 -3.06,1.98 -9.65,-0.35 -13.94,2.41 -4.3,2.76 -6.29,10.62 -8.52,13.48 -2.22,2.86 -4.68,0.71 -9.25,-1.53z"/>
   <path class="fil0 str0" d="M2443.77 1582.28c3.54,-2.13 6.76,-2.42 8.22,0.4 1.54,2.97 2.36,8.91 -0.2,15.27 -2.56,6.35 -8.5,13.12 -10.25,16.29 -1.74,3.18 0.72,2.77 2.56,4.1 1.84,1.33 3.07,4.41 3.69,6.86 0.62,2.46 0.62,4.3 5.64,2.87 5.02,-1.43 15.06,-6.15 22.75,-11.89 7.69,-5.74 13.01,-12.5 16.7,-14.96 3.69,-2.46 5.74,-0.62 5.74,4 0,4.61 -2.05,11.99 -1.33,16.91 0.72,4.92 4.2,7.38 8.3,7.79 4.1,0.41 8.81,-1.23 13.11,-2.97 4.3,-1.74 8.2,-3.59 9.63,-0.2 1.43,3.38 0.41,11.99 -4.82,19.88 -5.23,7.89 -14.65,15.06 -19.26,20.29 -4.61,5.23 -4.41,8.5 -3.79,11.99 0.61,3.48 1.64,7.17 3.79,8.71 2.15,1.54 5.43,0.92 8.5,-0.61 3.08,-1.54 5.94,-4 8.61,-4.2 2.66,-0.2 5.12,1.84 3.79,5.53 -1.33,3.69 -6.45,9.02 -10.96,12.7 -4.51,3.69 -8.4,5.74 -10.35,7.79 -1.95,2.05 -1.95,4.1 5.33,9.53 7.27,5.43 21.82,14.24 26.64,19.67 4.82,5.43 -0.1,7.48 -6.35,7.58 -6.25,0.1 -13.83,-1.74 -18.24,-0.2 -4.41,1.54 -5.64,6.45 -7.69,9.02 -2.05,2.56 -4.92,2.77 -4.41,4.61 0.51,1.84 4.41,5.33 7.17,9.12 2.77,3.79 4.41,7.89 6.87,12.4 2.46,4.51 5.74,9.43 7.27,12.91 1.54,3.48 1.33,5.53 -2.25,5.23 -3.59,-0.31 -10.55,-2.97 -15.16,-4.2 -4.61,-1.23 -6.87,-1.02 -7.99,0.41 -1.13,1.43 -1.13,4.1 0.41,9.12 1.54,5.02 4.61,12.4 4.71,18.24 0.1,5.84 -2.77,10.14 -5.64,13.01 -2.87,2.87 -5.74,4.3 -6.56,7.07 -0.82,2.77 0.41,6.87 -0.92,9.22 -1.33,2.36 -5.23,2.97 -8.61,4.92 -3.38,1.95 -6.25,5.23 -10.25,6.97 -4,1.74 -9.12,1.95 -12.91,3.28 -3.79,1.33 -6.25,3.79 -9.32,3.89 -3.07,0.1 -6.76,-2.15 -8.2,-1.33 -1.43,0.82 -0.61,4.71 -5.33,7.17 -4.71,2.46 -14.96,3.48 -22.03,2.36 -7.07,-1.13 -10.96,-4.41 -12.91,-4.41 -1.95,0 -1.95,3.28 -4.71,4.1 -2.77,0.82 -8.3,-0.82 -12.4,-2.56 -4.1,-1.74 -6.76,-3.59 -10.25,-2.09 -3.48,1.5 -7.79,6.34 -11.27,5.01 -3.48,-1.33 -6.15,-8.84 -7.68,-14.74 -1.54,-5.9 -1.95,-10.21 -4.61,-12.77 -2.66,-2.56 -7.58,-3.38 -13.11,2.52 -5.53,5.91 -11.68,18.54 -18.24,27.04 -6.56,8.5 -13.52,12.88 -17.01,9.74 -3.48,-3.14 -3.48,-13.79 -2.87,-23.63 0.62,-9.84 1.84,-18.85 1.64,-25.41 -0.2,-6.56 -1.84,-10.66 -3.79,-14.24 -1.95,-3.59 -4.2,-6.66 -6.66,-9.02 -2.46,-2.36 -5.12,-4 -7.58,-4.3 -2.46,-0.31 -4.71,0.72 -8.61,1.23 -3.89,0.51 -9.43,0.51 -15.6,0.72 -4.8,0.16 -36.96,-1.42 -34.96,-8.94 0.84,-3.17 17.6,-11.91 24.87,-17.85 7.27,-5.94 14.62,-8.46 18.77,-14.1 4.15,-5.63 1.26,-11.73 -0.14,-9.02 -0.96,1.85 -12.62,-2.13 -23.8,0.22 -12.41,2.61 -24.17,14.46 -24.53,11.8 -0.31,-2.25 2.1,-10.28 5.38,-15.3 3.28,-5.02 7.17,-10.14 11.17,-13.11 4,-2.97 8.09,-3.79 9.94,-7.69 1.84,-3.89 -2.2,-20.91 -1.89,-29.21 0.16,-4.47 14.16,0.44 14.68,-4.79 0.45,-4.48 -12.64,-8.02 -11.56,-11.28 1.6,-4.81 15.44,-1.59 18.96,-4.32 1.64,-1.27 -10.1,-6.24 -9.08,-7.48 3.23,-3.89 5.37,-9.73 4.76,-13.22 -0.61,-3.48 -5.39,-6.21 -11.49,-12.67 -6.1,-6.45 -9.31,-16.64 -14.94,-23.4 -5.64,-6.76 -8.71,-11.07 -5.12,-12.81 3.59,-1.74 13.83,-0.92 23.05,1.95 9.22,2.87 17.42,7.79 21.11,9.22 3.69,1.43 2.87,-0.62 3.69,-3.18 0.82,-2.56 3.28,-5.63 6.25,-8.81 2.97,-3.18 6.45,-6.45 7.38,-11.17 0.92,-4.71 -0.72,-10.86 0,-12.7 0.72,-1.84 3.79,0.61 8.09,0.31 4.3,-0.31 9.84,-3.38 13.83,-3.89 4,-0.51 6.46,1.54 7.69,0.31 1.23,-1.23 1.23,-5.74 2.77,-7.17 1.54,-1.43 4.61,0.2 7.38,1.02 2.77,0.82 5.23,0.82 6.87,-2 1.64,-2.82 0.8,-13.06 3.06,-14.09 1.24,-0.56 5.64,-2.46 8.26,0 2.13,2 3.17,3.86 5.6,4.75 5.43,2 10.67,4.34 16.21,0.29 5.53,-4.05 10.53,-10.09 13.62,-13.73 3.09,-3.64 5.37,-2.4 7.01,1.93 1.64,4.33 2.65,11.75 4.12,17.27 1.47,5.53 9.12,8.4 10.93,10.81 3.2,-0.65 7.51,0.21 11.89,0.15 4.38,-0.07 8.38,3.28 10.71,2.81 0.69,-0.14 17.05,-13.67 18.44,-14.59 0.03,-0.02 0.05,-0.03 0.08,-0.05z"/>
   <g>
    <path class="fil1 str0" d="M342.1 100.84c-6.86,-0.9 -20.57,-5.41 -32.39,-10.38 -11.82,-4.96 -21.75,-10.38 -33.84,-13.08 -12.09,-2.71 -26.35,-2.71 -35.55,-0.63 -9.2,2.08 -13.35,6.22 -19.04,11.91 -5.68,5.68 -12.9,12.9 -20.39,18.23 -7.49,5.32 -15.25,8.75 -20.66,13.62 -5.41,4.87 -8.48,11.19 -11.82,15.7 -3.34,4.51 -6.95,7.22 -8.21,11.19 -1.26,3.97 -0.18,9.21 -0.36,15.88 -0.18,6.68 -1.62,14.8 -2.35,24.72 -0.72,9.93 -0.72,21.65 2.26,28.6 2.98,6.95 8.93,9.11 11.28,14.44 2.34,5.32 1.08,13.81 4.42,19.22 3.34,5.41 11.28,7.76 15.43,12.27 4.15,4.51 4.51,11.19 10.02,13.54 5.5,2.35 16.15,0.36 21.93,2.8 5.77,2.44 6.68,9.29 12.99,15.97 6.32,6.68 18.05,13.17 31.13,15.43 13.08,2.26 27.52,0.27 35.73,-4.7 8.21,-4.97 10.2,-12.92 13.99,-15.08 3.79,-2.17 9.38,1.45 15.79,6.96 6.41,5.51 13.63,12.91 19.58,17.33 5.96,4.42 10.65,5.86 16.87,5.95 6.22,0.09 13.99,-1.17 19.49,-0.18 5.5,0.99 8.75,4.24 14.44,5.14 5.68,0.9 13.8,-0.54 22.02,-3.7 8.21,-3.16 16.51,-8.03 24,-11.73 7.49,-3.7 14.17,-6.23 21.84,-5.96 7.67,0.27 16.33,3.34 23.64,3.98 7.31,0.64 13.26,-1.15 18.67,-6.66 5.41,-5.5 10.29,-14.72 13.9,-21.31 3.61,-6.59 5.96,-10.56 11.46,-11.47 5.5,-0.9 14.17,1.26 24.09,1.08 9.93,-0.18 21.11,-2.71 28.96,-7.31 7.85,-4.6 12.36,-11.28 15.34,-18.5 2.98,-7.22 4.42,-14.98 5.05,-23.37 0.63,-8.39 0.45,-17.42 1.71,-22.2 1.26,-4.78 3.97,-5.33 6.68,-10.02 2.71,-4.69 5.41,-13.53 6.41,-22.65 0.99,-9.11 0.27,-18.5 -2.26,-25.63 -2.53,-7.13 -6.86,-12 -12.99,-17.14 -6.14,-5.14 -14.08,-10.56 -21.3,-14.62 -7.22,-4.06 -13.71,-6.77 -21.45,-9.02 -7.74,-2.26 -16.71,-4.06 -24.92,-6.41 -8.21,-2.35 -15.66,-5.23 -22.36,-6.86 -6.7,-1.62 -12.66,-1.99 -18.43,-3.97 -5.78,-1.99 -11.37,-5.59 -17.14,-8.93 -5.78,-3.34 -11.73,-6.41 -18.14,-8.93 -6.41,-2.53 -13.27,-4.51 -21.3,-3.97 -8.03,0.54 -17.24,3.61 -25.54,7.67 -8.3,4.06 -15.7,9.11 -21.38,12.9 -5.69,3.79 -9.66,6.32 -14.62,7.4 -4.96,1.08 -10.92,0.72 -17.05,1.8 -6.14,1.08 -12.45,3.61 -15.61,6.23 -3.16,2.62 -3.16,5.32 -10.02,4.42z"/>
    <path class="fil2 str0" d="M1408.37 250.56c-3.98,-1.37 -14.4,-6.58 -22.63,-11.93 -8.23,-5.35 -14.26,-10.83 -21.94,-15.77 -7.68,-4.94 -17,-9.33 -26.19,-12.07 -9.19,-2.74 -18.24,-3.84 -28.11,-4.11 -9.87,-0.27 -20.57,0.27 -28.8,2.06 -8.23,1.78 -13.99,4.8 -21.66,6.86 -7.68,2.06 -17.28,3.15 -26.74,5.49 -9.46,2.33 -18.79,5.9 -26.47,8.09 -7.68,2.19 -13.71,3.02 -25.47,3.56 -11.75,0.55 -29.23,0.82 -47.47,4.66 -18.24,3.84 -37.24,11.24 -50.85,16.59 -13.61,5.35 -21.84,8.64 -29.52,8.78 -7.68,0.14 -14.81,-2.88 -21.66,-1.78 -6.86,1.1 -13.44,6.31 -19.2,7.68 -5.76,1.37 -10.7,-1.1 -17.55,-0 -6.86,1.1 -15.63,5.76 -18.1,9.03 -2.47,3.27 1.37,5.14 6.44,8.02 5.07,2.88 11.38,6.76 14.4,12.14 3.02,5.37 2.74,12.23 0.82,18.53 -1.92,6.31 -5.48,12.07 -6.03,16.32 -0.55,4.25 1.92,6.99 3.43,12.21 1.51,5.21 2.06,12.89 2.33,18.24 0.27,5.35 0.27,8.36 3.7,9.74 3.43,1.37 10.28,1.1 18.79,0.96 8.5,-0.14 18.65,-0.14 23.86,1.51 5.21,1.64 5.48,4.94 8.91,8.09 3.43,3.15 10.01,6.17 15.36,7.95 5.35,1.78 9.46,2.33 13.03,6.31 3.57,3.98 6.58,11.38 11.66,18.51 5.07,7.13 12.2,13.99 15.91,20.84 3.7,6.86 3.98,13.71 6.25,20.84 2.27,7.13 6.54,14.54 12.71,17.83 6.17,3.29 14.25,2.47 21.58,-0.27 7.33,-2.74 13.91,-7.39 18.3,-11.64 4.39,-4.25 6.58,-8.1 9.32,-10.44 2.74,-2.34 6.03,-3.16 9.74,-1.23 3.7,1.92 7.82,6.6 8.91,13.46 1.1,6.86 -0.82,15.89 0.27,23.84 1.1,7.95 5.21,14.8 7.82,21.93 2.61,7.13 3.7,14.54 6.31,22.49 2.6,7.95 6.72,16.45 10.56,19.33 3.84,2.88 7.4,0.14 11.11,-5.07 3.7,-5.21 7.54,-12.89 9.46,-18.65 1.92,-5.76 1.92,-9.6 4.53,-7.95 2.61,1.64 7.82,8.78 12.34,17.26 4.53,8.48 8.36,18.32 10.56,25.86 2.19,7.54 2.74,12.79 5.48,13.5 2.74,0.7 7.68,-3.14 10.15,-7.8 2.47,-4.66 2.47,-10.15 4.11,-13.16 1.64,-3.02 4.94,-3.57 9.19,-2.61 4.25,0.96 9.46,3.43 14.76,0.96 5.3,-2.47 10.69,-9.87 13.39,-21.53 2.7,-11.66 2.7,-27.56 6.58,-26.47 3.89,1.1 11.66,19.2 17.19,30.85 5.53,11.66 8.82,16.87 13.62,18.51 4.8,1.64 11.11,-0.27 20.02,-5.07 8.91,-4.8 20.43,-12.48 26.96,-18.51 6.53,-6.03 8.06,-10.42 11.63,-10.97 3.57,-0.55 9.16,2.74 16.35,5.9 7.19,3.15 15.96,6.17 19.94,3.15 3.98,-3.02 3.15,-12.07 2.74,-20.43 -0.41,-8.37 -0.41,-16.04 5.76,-18.92 6.17,-2.88 18.51,-0.96 27.43,-0.27 8.91,0.69 14.4,0.14 16.32,-3.02 1.92,-3.15 0.27,-8.91 0.96,-13.57 0.69,-4.66 3.7,-8.21 8.09,-7.66 4.39,0.55 10.15,5.2 12.89,3 2.74,-2.2 2.47,-11.25 0.27,-24.28 -2.19,-13.03 -6.31,-30.03 -5.62,-36.34 0.69,-6.31 6.17,-1.92 13.16,1.92 6.99,3.84 15.49,7.13 25.37,9.05 9.87,1.92 21.12,2.47 26.05,0.12 4.94,-2.34 3.57,-7.58 1.51,-13.62 -2.06,-6.03 -4.8,-12.86 -3.7,-16 1.1,-3.14 6.03,-2.59 13.85,-2.73 7.82,-0.14 18.51,-0.96 21.8,-3.02 3.29,-2.06 -0.82,-5.35 -5.48,-10.83 -4.66,-5.48 -9.87,-13.16 -11.52,-18.79 -1.64,-5.62 0.27,-9.19 5.21,-9.6 4.94,-0.41 12.89,2.33 16.04,1.1 3.15,-1.23 1.51,-6.45 -3.57,-13.85 -5.07,-7.4 -13.57,-17 -26.6,-27.7 -13.03,-10.7 -30.58,-22.49 -44.29,-31.54 -13.71,-9.05 -23.59,-15.36 -32.64,-20.98 -9.05,-5.62 -17.28,-10.56 -28.25,-12.75 -10.97,-2.19 -24.68,-1.64 -37.49,-2.6 -12.81,-0.96 -24.71,-3.43 -32.67,-2.19 -7.95,1.23 -11.95,6.17 -12.72,9.87 -0.77,3.7 1.7,6.17 -2.27,4.8z"/>
    <path class="fil3 str0" d="M2087.19 374.38c0.08,8.94 0.47,24.33 -3.08,34.2 -3.55,9.87 -11.05,14.21 -19.34,17.57 -8.29,3.35 -17.37,5.72 -24.87,9.47 -7.5,3.75 -13.42,8.88 -21.91,12.24 -8.49,3.35 -19.54,4.93 -27.43,1.78 -7.89,-3.16 -12.63,-11.05 -16.97,-18.75 -4.34,-7.7 -8.29,-15.21 -13.22,-20.53 -4.93,-5.33 -10.85,-8.48 -15.39,-8.48 -4.54,0 -7.7,3.15 -14.21,2.1 -6.51,-1.05 -16.38,-6.3 -27.63,-7.88 -11.25,-1.58 -23.88,0.52 -33.55,0.52 -9.67,0 -16.38,-2.1 -23.49,-9.21 -7.11,-7.11 -14.61,-19.22 -21.71,-25.07 -7.1,-5.86 -13.82,-5.46 -19.74,-10.99 -5.92,-5.53 -11.05,-16.97 -12.24,-31.58 -1.18,-14.61 1.58,-32.37 8.29,-45.2 6.71,-12.83 17.37,-20.72 25.66,-28.42 8.29,-7.7 14.21,-15.2 16.18,-23.09 1.97,-7.89 0,-16.18 -1.38,-25.46 -1.38,-9.28 -2.17,-19.54 -0.99,-28.03 1.18,-8.49 4.34,-15.2 7.89,-20.92 3.55,-5.72 7.5,-10.46 10.66,-13.82 3.16,-3.36 5.53,-5.33 7.1,-11.45 1.58,-6.12 2.37,-16.38 8.49,-26.65 6.12,-10.26 17.56,-20.53 29.6,-28.22 12.04,-7.7 24.67,-12.83 36.32,-22.1 11.64,-9.28 22.3,-22.7 32.76,-29.21 10.46,-6.51 20.72,-6.12 30.59,-7.1 9.87,-0.99 19.34,-3.36 27.24,-5.33 7.89,-1.97 14.21,-3.55 18.55,-3.95 4.34,-0.39 6.71,0.4 6.32,2.96 -0.39,2.56 -3.55,6.91 -3.75,10.26 -0.2,3.35 2.57,5.72 8.09,8.49 5.53,2.76 13.82,5.92 20.33,11.45 6.51,5.53 11.25,13.42 13.13,19.43 1.88,6.01 0.91,10.14 -0.67,14.14 -1.58,4.01 -3.76,7.89 -1.46,12.26 2.31,4.37 9.1,9.23 14.93,14.08 5.83,4.86 10.68,9.71 14.08,15.18 3.4,5.46 5.34,11.53 7.04,17.72 1.7,6.19 3.16,12.5 4.61,17.97 1.46,5.46 2.91,10.07 2.91,15.54 0,5.46 -1.46,11.77 -0.37,16.63 1.09,4.86 4.73,8.26 5.1,12.87 0.36,4.61 -2.55,10.44 -0.61,15.54 1.94,5.1 8.74,9.47 13.72,14.2 4.98,4.73 8.13,9.83 9.83,13.6 1.7,3.76 1.94,6.19 4.37,9.71 2.43,3.52 7.04,8.13 9.23,14.69 2.19,6.55 1.94,15.05 1.94,21.85 0,6.8 0.24,11.9 -1.21,15.66 -1.46,3.76 -4.61,6.19 -8.62,12.5 -4.01,6.31 -8.86,16.51 -16.15,25.86 -7.28,9.35 -16.99,17.84 -26.46,21.97 -9.47,4.13 -18.69,3.88 -25.01,4 -6.31,0.12 -9.71,0.61 -11.53,2.09 -1.82,1.48 -2.06,3.97 -1.99,12.9z"/>
    <path class="fil4 str0" d="M2613.69 223.07c5.19,1.14 9.51,5.46 19.49,9.48 9.98,4.02 25.61,7.74 36.9,13.21 11.29,5.46 18.24,12.66 22.34,17.99 4.09,5.34 5.34,8.81 11.04,12.53 5.71,3.72 15.88,7.69 21.59,12.66 5.71,4.96 6.95,10.92 5.21,18.49 -1.74,7.57 -6.45,16.75 -6.95,25.56 -0.5,8.81 3.23,17.25 9.31,27.3 6.08,10.05 14.52,21.72 16.38,32.88 1.86,11.17 -2.85,21.84 -5.58,29.78 -2.73,7.94 -3.47,13.15 -2.85,17.5 0.62,4.34 2.61,7.82 1.49,15.39 -1.12,7.57 -5.34,19.23 -8.56,29.78 -3.22,10.55 -5.46,19.98 -6.2,29.91 -0.74,9.93 0,20.35 -2.11,29.28 -2.11,8.93 -7.07,16.38 -14.89,20.47 -7.82,4.1 -18.49,4.84 -28.17,9.18 -9.68,4.34 -18.36,12.29 -26.8,17.5 -8.44,5.21 -16.63,7.69 -21.59,6.33 -4.96,-1.37 -6.7,-6.58 -10.92,-9.06 -4.22,-2.48 -10.92,-2.23 -16.01,-1.61 -5.09,0.62 -8.56,1.61 -14.15,-2.98 -5.58,-4.59 -13.28,-14.77 -18.49,-21.34 -5.21,-6.58 -7.94,-9.56 -11.42,-9.68 -3.47,-0.12 -7.69,2.61 -12.53,5.58 -4.84,2.98 -10.3,6.2 -16.01,7.69 -5.71,1.49 -11.66,1.24 -16.75,1.24 -5.09,0 -9.31,0.25 -14.15,0.25 -4.84,0 -10.3,-0.25 -16.38,-2.36 -6.08,-2.11 -12.78,-6.08 -19.36,-8.81 -6.58,-2.73 -13.03,-4.22 -17,-9.31 -3.97,-5.09 -5.46,-13.78 -8.8,-20.47 -3.34,-6.7 -8.55,-11.42 -11.15,-17.5 -2.6,-6.08 -2.6,-13.53 -4.47,-17.99 -1.87,-4.47 -5.6,-5.96 -8.83,-10.55 -3.23,-4.59 -5.96,-12.29 -6.83,-17.37 -0.87,-5.09 0.12,-7.57 -3.1,-9.93 -3.23,-2.36 -10.67,-4.59 -16.5,-9.8 -5.83,-5.21 -10.05,-13.4 -12.17,-19.77 -2.12,-6.37 -2.14,-10.93 -0.05,-22.48 2.09,-11.56 6.28,-30.12 18.37,-47.22 12.09,-17.1 32.06,-32.75 51.32,-39.97 19.25,-7.22 37.79,-6.02 48.98,-12.4 11.19,-6.38 15.04,-20.34 25.51,-35.36 10.47,-15.03 27.56,-31.12 40.92,-38.14 13.36,-7.02 22.99,-4.97 30.83,-4.97 7.85,0 13.92,-2.05 19.11,-0.92z"/>
    <path class="fil5 str0" d="M2614.64 221.43c-0.37,-7.87 -1.11,-20.35 -4.18,-30.52 -3.07,-10.17 -8.48,-18.04 -11.31,-26.15 -2.83,-8.11 -3.07,-16.47 -5.16,-24.46 -2.09,-7.99 -6.02,-15.61 -13.77,-20.28 -7.74,-4.67 -19.29,-6.39 -27.53,-10.94 -8.23,-4.55 -13.15,-11.92 -17.7,-19.91 -4.55,-7.99 -8.73,-16.59 -16.1,-23.23 -7.37,-6.64 -17.94,-11.31 -27.41,-15.36 -9.46,-4.06 -17.82,-7.5 -23.23,-11.18 -5.41,-3.69 -7.87,-7.62 -18.19,-9.96 -10.32,-2.34 -28.51,-3.07 -46.21,-0.98 -17.7,2.09 -34.9,7 -44.12,13.27 -9.22,6.27 -10.45,13.89 -15.12,25.07 -4.67,11.18 -12.78,25.93 -20.52,33.18 -7.74,7.25 -15.12,7.01 -27.77,12.04 -12.66,5.04 -30.6,15.36 -41.42,29.13 -10.81,13.76 -14.5,30.97 -13.52,43.63 0.98,12.66 6.64,20.77 9.34,36.5 2.7,15.73 2.46,39.08 3.44,56.04 0.98,16.96 3.2,27.53 5.04,37.98 1.84,10.45 3.32,20.77 9.22,28.02 5.9,7.25 16.22,11.43 21.88,18.56 5.65,7.13 6.64,17.2 13.39,22.49 6.76,5.29 19.3,5.78 26.42,7.62 7.13,1.84 8.85,5.04 11.67,9.71 2.83,4.67 6.76,10.81 12.41,11.43 5.65,0.61 13.03,-4.3 17.7,-4.92 4.67,-0.62 6.64,3.07 13.4,4.55 6.76,1.48 18.31,0.74 26.79,-3.07 8.48,-3.81 13.89,-10.69 23.6,-10.45 9.71,0.25 23.72,7.62 35.89,8.23 12.17,0.61 22.49,-5.53 29.99,-14.38 7.5,-8.85 12.17,-20.4 20.52,-28.64 8.36,-8.23 20.4,-13.15 26.79,-19.29 6.39,-6.15 7.13,-13.52 7.25,-19.05 0.12,-5.53 -0.37,-9.22 4.79,-10.69 5.16,-1.48 15.98,-0.74 23.35,-3.07 7.37,-2.33 11.31,-7.74 14.01,-16.96 2.7,-9.22 4.18,-22.25 0.74,-32.81 -3.44,-10.57 -11.8,-18.68 -9.95,-22.74 1.84,-4.06 13.89,-4.06 19.91,-5.68 6.02,-1.63 6.02,-4.88 5.65,-12.74z"/>
    <path class="fil3 str0" d="M2040.47 1223.59c7.97,1.23 23.92,-1.23 34.96,0 11.04,1.23 17.18,6.14 22.91,7.37 5.73,1.23 11.05,-1.23 18.01,-2.05 6.96,-0.82 15.56,0 24.15,3.89 8.6,3.89 17.19,10.85 27.78,14.74 10.59,3.89 23.18,4.71 31.57,8.82 8.39,4.11 12.59,11.51 15.5,17.44 2.92,5.94 4.55,10.41 8.85,15.71 4.3,5.31 11.26,11.45 12.49,19.84 1.23,8.39 -3.27,19.03 -2.87,25.17 0.41,6.14 5.73,7.78 11.67,14.33 5.94,6.55 12.48,18.01 13.92,25.38 1.43,7.37 -2.25,10.64 -3.89,13.41 -1.64,2.76 -1.23,5.02 -2.25,9.31 -1.02,4.3 -3.48,10.64 -9.62,17.09 -6.14,6.45 -15.96,13 -23.18,15.66 -7.21,2.66 -11.82,1.43 -11.61,4.5 0.2,3.07 5.22,10.44 5.22,18.42 0,7.98 -5.01,16.58 -8.7,24.76 -3.68,8.19 -6.04,15.96 -9.88,19.44 -3.84,3.48 -9.16,2.66 -13.46,4.3 -4.3,1.64 -7.57,5.73 -8.8,9.82 -1.23,4.09 -0.41,8.19 -3.48,11.87 -3.07,3.68 -10.03,6.96 -17.6,8.19 -7.57,1.23 -15.76,0.41 -22.92,1.02 -7.16,0.61 -13.3,2.66 -16.37,5.52 -3.07,2.87 -3.07,6.55 -4.71,9.42 -1.64,2.87 -4.91,4.91 -10.44,7.37 -5.53,2.46 -13.3,5.32 -19.85,9.01 -6.55,3.68 -11.87,8.19 -19.23,9.21 -7.36,1.02 -16.75,-1.43 -26.78,-2.05 -10.03,-0.61 -20.69,0.61 -29.3,2.05 -8.6,1.43 -15.16,3.07 -23.55,-0.61 -8.39,-3.68 -18.62,-12.69 -27.02,-17.8 -8.39,-5.12 -14.94,-6.35 -22.51,-12.9 -7.57,-6.55 -16.17,-18.42 -22.51,-28.45 -6.34,-10.03 -10.44,-18.22 -11.46,-24.56 -1.02,-6.34 1.02,-10.85 1.02,-16.58 0,-5.73 -2.05,-12.69 -3.89,-22.51 -1.84,-9.82 -3.48,-22.51 -6.34,-32.03 -2.87,-9.52 -6.96,-15.86 -9.82,-23.64 -2.86,-7.78 -4.5,-16.99 -8.39,-23.23 -3.89,-6.24 -10.03,-9.52 -13.51,-15.25 -3.48,-5.73 -4.3,-13.92 -0.2,-20.88 4.09,-6.96 13.1,-12.69 17.6,-18.21 4.5,-5.53 4.5,-10.85 12.48,-16.17 7.98,-5.32 23.95,-10.64 36.02,-19.03 12.08,-8.39 20.26,-19.85 24.15,-28.65 3.89,-8.8 3.48,-14.94 5.53,-22.51 2.05,-7.57 6.55,-16.58 13.71,-19.24 7.16,-2.66 16.99,1.02 25.38,0.41 8.39,-0.61 15.35,-5.53 22.32,-5.94 6.97,-0.41 13.95,3.68 17.43,8.19 3.49,4.5 3.49,9.41 11.46,10.64z"/>
    <path class="fil6 str0" d="M1710.15 1945.78c-3.88,-2.15 -9.99,-9.58 -16.19,-13.54 -6.19,-3.96 -12.47,-4.46 -19.08,-2.56 -6.61,1.9 -13.54,6.19 -17.51,11.15 -3.96,4.96 -4.96,10.57 -7.1,15.2 -2.15,4.62 -5.45,8.26 -11.64,8.5 -6.19,0.25 -15.28,-2.89 -23.87,-0.58 -8.59,2.31 -16.68,10.07 -25.19,15.11 -8.51,5.04 -17.43,7.35 -23.29,15.94 -5.86,8.59 -8.67,23.45 -7.27,32.21 1.4,8.75 7.02,11.4 7.35,15.03 0.33,3.63 -4.62,8.26 -7.93,15.77 -3.3,7.52 -4.95,17.92 -0.91,25.93 4.05,8.01 13.79,13.63 21.06,16.19 7.27,2.56 12.06,2.07 14.54,4.79 2.48,2.73 2.64,8.67 5.04,14.78 2.39,6.11 7.02,12.39 13.21,17.01 6.19,4.62 13.96,7.6 20.89,5.12 6.94,-2.48 13.05,-10.4 17.92,-13.63 4.87,-3.22 8.51,-1.73 12.47,3.22 3.96,4.96 8.26,13.38 17.51,15.77 9.25,2.39 23.45,-1.24 33.53,-7.02 10.08,-5.78 16.02,-13.71 18.33,-21.31 2.31,-7.6 0.99,-14.86 1.82,-17.42 0.83,-2.56 3.8,-0.41 8.34,0.74 4.54,1.16 10.65,1.32 15.69,-5.04 5.04,-6.36 9,-19.24 9.25,-27.67 0.25,-8.42 -3.22,-12.39 -2.64,-16.35 0.58,-3.96 5.2,-7.93 8.34,-16.1 3.14,-8.18 4.79,-20.56 2.73,-31.13 -2.06,-10.57 -7.85,-19.32 -12.63,-23.7 -4.79,-4.38 -8.59,-4.38 -10.57,-6.69 -1.98,-2.31 -2.15,-6.94 -4.13,-12.88 -1.98,-5.95 -5.78,-13.21 -11.23,-16.93 -5.45,-3.72 -12.55,-3.88 -16.93,-2.4 -4.38,1.49 -6.03,4.62 -9.91,2.48z"/>
    <path class="fil7 str0" d="M1002.44 951.92c-7.08,-7.4 -13.57,-17.87 -22.57,-23.42 -9,-5.55 -20.51,-6.2 -29.67,-2.59 -9.17,3.61 -15.99,11.47 -22.87,12.7 -6.88,1.22 -13.82,-4.19 -26.13,-7.44 -12.31,-3.25 -30,-4.33 -42.09,-2.71 -12.09,1.62 -18.59,5.96 -23.64,7.76 -5.05,1.8 -8.66,1.08 -10.29,-1.98 -1.62,-3.07 -1.26,-8.48 -5.96,-10.47 -4.69,-1.99 -14.44,-0.54 -20.39,2.52 -5.96,3.07 -8.12,7.76 -9.92,12.09 -1.81,4.33 -3.25,8.3 -6.5,10.47 -3.25,2.17 -8.3,2.53 -13.9,5.78 -5.59,3.25 -11.73,9.38 -13.35,16.78 -1.62,7.4 1.26,16.06 3.61,23.64 2.35,7.58 4.15,14.08 0.72,18.23 -3.43,4.15 -12.09,5.96 -19.49,11.19 -7.4,5.23 -13.54,13.9 -16.24,23.64 -2.71,9.75 -1.99,20.57 -2.71,27.79 -0.72,7.22 -2.89,10.83 -5.05,18.05 -2.17,7.22 -4.33,18.05 -5.05,26.89 -0.72,8.84 -0,15.7 3.79,21.11 3.79,5.41 10.65,9.38 14.08,15.52 3.43,6.14 3.43,14.44 6.14,22.67 2.71,8.24 8.12,16.41 14.8,20.49 6.68,4.09 14.62,4.09 20.76,4.09 6.13,0 10.47,0 12.81,4.22 2.35,4.22 2.71,12.65 5.96,19.03 3.25,6.38 9.38,10.71 18.23,16.13 8.84,5.41 20.39,11.91 28.51,12.99 8.12,1.08 12.81,-3.25 16.06,-3.61 3.25,-0.36 5.05,3.25 8.66,7.04 3.61,3.79 9.02,7.76 13.71,8.66 4.69,0.9 8.66,-1.26 10.65,-3.43 1.99,-2.17 1.99,-4.33 4.11,-4.51 2.13,-0.18 6.39,1.62 11.98,3.25 5.59,1.62 12.52,3.07 21.4,1.44 8.88,-1.62 19.71,-6.32 24.94,-9.93 5.23,-3.61 4.87,-6.14 9.02,-4.51 4.15,1.62 12.81,7.4 22.56,7.94 9.74,0.54 20.57,-4.15 27.03,-9.2 6.45,-5.05 8.53,-10.47 11.06,-13.35 2.53,-2.89 5.5,-3.25 9.33,-4.15 3.83,-0.9 8.52,-2.35 14.12,-3.97 5.59,-1.62 12.09,-3.43 15.52,-9.02 3.43,-5.59 3.79,-14.98 5.78,-24 1.99,-9.02 5.59,-17.69 9.99,-23.1 4.4,-5.41 9.58,-7.58 12.17,-15.88 2.59,-8.3 2.59,-22.74 1.08,-31.04 -1.51,-8.3 -4.53,-10.47 -4.53,-12.45 0,-1.98 3.02,-3.79 4.53,-11.01 1.51,-7.22 1.51,-19.85 2.35,-31.58 0.84,-11.73 2.51,-22.56 2.51,-30.32 0,-7.76 -1.67,-12.45 -5.46,-16.24 -3.79,-3.79 -9.7,-6.68 -13.37,-11.01 -3.68,-4.33 -5.12,-10.11 -6.02,-18.41 -0.9,-8.3 -1.26,-19.13 -7.9,-24 -6.64,-4.87 -19.56,-3.79 -29.84,-5.41 -10.29,-1.62 -17.94,-5.95 -25.02,-13.35z"/>
    <path class="fil8 str0" d="M1280.91 648.64c-6.8,4.72 -7.68,13.27 -6.94,20.07 0.74,6.8 3.1,11.84 0.59,14.95 -2.51,3.11 -9.9,4.29 -16.4,1.77 -6.5,-2.52 -12.12,-8.74 -20.3,-15.63 -8.18,-6.88 -18.93,-14.43 -29.57,-14.43 -10.64,0 -21.16,7.54 -31.01,15.36 -9.84,7.81 -19,15.89 -27.72,19.94 -8.72,4.04 -16.99,4.04 -23.05,6.36 -6.06,2.32 -9.9,6.96 -9.9,13.57 0,6.61 3.84,15.17 7.32,23 3.48,7.83 6.6,14.92 4.82,24.53 -1.77,9.6 -8.44,21.72 -13.54,30.98 -5.11,9.26 -8.65,15.67 -8.36,23.35 0.3,7.68 4.43,16.64 5.61,23.63 1.18,6.99 -0.59,12.01 -4.82,18.96 -4.23,6.94 -10.92,15.81 -11.07,28.07 -0.15,12.26 6.24,27.92 13.51,38.12 7.27,10.19 15.41,14.92 30.92,18.32 15.51,3.4 38.4,5.47 52.21,4.58 13.81,-0.89 18.53,-4.73 25.77,-5.91 7.24,-1.18 16.99,0.3 20.68,6.94 3.69,6.65 1.33,18.47 -0.37,30.99 -1.7,12.53 -2.75,25.76 4.64,38.02 7.39,12.26 23.2,23.56 39.59,31.13 16.38,7.57 33.33,11.41 49.74,9.05 16.4,-2.36 32.25,-10.93 43.57,-12.85 11.32,-1.92 18.12,2.81 28.31,5.17 10.19,2.36 23.79,2.36 35.9,-1.77 12.12,-4.14 22.75,-12.41 34.28,-25.71 11.53,-13.3 23.93,-31.62 30.88,-48.51 6.94,-16.89 8.42,-32.36 7.39,-44.47 -1.03,-12.11 -4.58,-20.88 -5.32,-30.88 -0.74,-10 1.33,-21.23 7.53,-28.47 6.21,-7.24 16.55,-10.49 23.34,-17.73 6.8,-7.24 10.05,-18.47 9.9,-28.96 -0.15,-10.49 -3.69,-20.24 -4.14,-30.29 -0.44,-10.05 2.22,-20.39 -5.47,-31.32 -7.68,-10.93 -25.71,-22.46 -36.12,-30.29 -10.41,-7.83 -13.2,-11.97 -8.76,-19.06 4.43,-7.09 16.09,-17.14 24.28,-24.97 8.19,-7.83 12.92,-13.45 15.28,-23.2 2.36,-9.75 2.36,-23.64 -1.33,-32.8 -3.69,-9.16 -11.08,-13.59 -19.27,-15.81 -8.19,-2.22 -17.18,-2.22 -23.98,-0.3 -6.8,1.92 -11.39,5.76 -18.86,7.54 -7.47,1.77 -17.81,1.48 -32.17,-0.8 -14.36,-2.28 -32.74,-6.54 -47.92,-6.69 -15.18,-0.15 -27.16,3.82 -39.55,9.49 -12.38,5.68 -25.16,13.06 -37.91,17.2 -12.74,4.14 -25.45,5.02 -32.25,9.74z"/>
    <path class="fil4 str0" d="M1773.97 893.86c-2.37,-5.04 -2.07,-15.71 -8.59,-25.79 -6.52,-10.08 -19.86,-19.56 -43.57,-19.41 -23.71,0.15 -57.79,9.93 -78.69,13.49 -20.89,3.56 -28.6,0.89 -43.12,6.96 -14.52,6.08 -35.86,20.9 -47.57,40.9 -11.71,20.01 -13.78,45.2 -12.74,61.35 1.05,16.15 5.21,23.27 4.77,27.27 -0.44,4 -5.5,4.89 -14.7,10.52 -9.2,5.63 -22.53,16.01 -31.13,31.42 -8.59,15.41 -12.45,35.86 -10.97,51.27 1.48,15.41 8.3,25.79 9.14,31.42 0.84,5.63 -4.3,6.52 -6.87,14.97 -2.57,8.45 -2.57,24.45 1.04,39.86 3.61,15.41 10.82,30.23 22.13,37.79 11.31,7.56 26.73,7.85 35.62,7.56 8.89,-0.3 11.26,-1.19 13.63,4 2.37,5.19 4.74,16.45 13.63,26.23 8.89,9.78 24.3,18.08 35.86,21.43 11.56,3.35 19.27,1.75 23.71,2.5 4.45,0.74 5.63,3.82 9.78,6.99 4.15,3.17 11.26,6.43 21.19,5.27 9.93,-1.16 22.68,-6.73 29.87,-15.02 7.19,-8.28 8.83,-19.27 11.35,-23.9 2.52,-4.62 5.92,-2.88 15.17,-3.33 9.26,-0.46 24.37,-3.13 35.49,-10.64 11.11,-7.51 18.23,-19.87 21.34,-29.95 3.11,-10.08 2.22,-17.87 4.59,-23.1 2.37,-5.23 8,-7.9 14.37,-15.16 6.37,-7.26 13.49,-19.12 20.45,-30.97 6.96,-11.85 13.78,-23.71 19.17,-33.34 5.39,-9.63 9.34,-17.04 9.78,-28.75 0.44,-11.71 -2.62,-27.71 -6.56,-38.64 -3.94,-10.93 -8.74,-16.8 -8.89,-23.61 -0.15,-6.82 4.37,-14.59 6.32,-22.77 1.96,-8.18 1.37,-16.78 1.96,-26.71 0.59,-9.93 2.37,-21.19 0,-31.71 -2.37,-10.52 -8.89,-20.3 -18.67,-25.93 -9.78,-5.63 -22.82,-7.11 -31.86,-7.56 -9.04,-0.44 -14.08,0.15 -16.45,-4.89z"/>
    <path class="fil4 str0" d="M1313.6 1399.4c-4.23,-3.42 -8.86,-11.88 -19.12,-18.22 -10.27,-6.34 -26.17,-10.57 -42.67,-8.96 -16.51,1.61 -33.61,9.06 -42.05,12.62 -8.43,3.56 -8.19,3.23 -12.53,0.51 -4.34,-2.72 -13.25,-7.83 -20.31,-8.07 -7.07,-0.24 -12.28,4.4 -15.6,5.31 -3.31,0.91 -4.72,-1.91 -8.04,-3.52 -3.32,-1.61 -8.55,-2.01 -15.9,0.82 -7.35,2.84 -16.81,8.92 -26.17,10.93 -9.36,2.01 -18.62,-0.04 -27.17,-3.48 -8.55,-3.44 -16.41,-8.27 -25.06,-8.48 -8.66,-0.2 -18.12,4.23 -23.55,11.17 -5.43,6.94 -6.84,16.4 -8.86,24.36 -2.01,7.95 -4.63,14.39 -8.65,23.85 -4.03,9.46 -9.46,21.94 -13.99,35.53 -4.53,13.59 -8.15,28.28 -9.36,44.08 -1.21,15.8 -0,32.71 2.72,47.4 2.72,14.69 6.94,27.17 15.6,42.97 8.65,15.8 21.74,34.92 37.74,47.4 16,12.48 34.92,18.32 53.44,14.09 18.52,-4.23 36.63,-18.52 47.4,-22.85 10.77,-4.33 14.19,1.31 18.92,7.05 4.73,5.74 10.77,11.57 19.53,13.99 8.76,2.42 20.23,1.41 31.29,3.11 11.06,1.7 21.7,6.11 30.05,7.93 8.35,1.81 14.42,1.02 22.28,-2.89 7.86,-3.92 17.53,-10.96 27.88,-11.57 10.35,-0.6 21.39,5.23 31.36,9.56 9.96,4.33 18.85,7.15 24.9,4.53 6.05,-2.62 9.27,-10.67 16.62,-14.09 7.35,-3.42 18.82,-2.21 29.19,-1.61 10.37,0.6 19.63,0.6 24.25,-5.74 4.63,-6.34 4.63,-19.02 5.54,-27.88 0.91,-8.86 2.72,-13.89 6.54,-18.12 3.83,-4.23 9.66,-7.65 15.2,-10.97 5.54,-3.32 10.77,-6.54 16,-8.15 5.23,-1.61 10.47,-1.61 13.69,-3.42 3.22,-1.81 4.43,-5.43 3.32,-11.67 -1.11,-6.24 -4.53,-15.1 -7.95,-22.25 -3.42,-7.15 -6.84,-12.6 -8.55,-16.83 -1.71,-4.23 -1.71,-7.23 0.1,-9.44 1.81,-2.21 5.43,-3.62 6.14,-12.78 0.71,-9.16 -1.51,-26.07 -5.74,-38.75 -4.23,-12.68 -10.47,-21.13 -16.6,-30.39 -6.14,-9.26 -12.18,-19.32 -18.52,-28.06 -6.34,-8.74 -12.97,-16.14 -22.58,-21.89 -9.6,-5.75 -22.17,-9.84 -33.34,-10.46 -11.18,-0.62 -20.96,2.22 -29.97,5.05 -9.02,2.83 -17.27,5.65 -23.31,7.86 -6.04,2.21 -9.86,3.83 -14.09,0.4z"/>
    <path class="fil0 str0" d="M812.67 2200.89c-4.41,3.69 -12.41,-1.23 -22.05,-8.31 -9.64,-7.08 -20.92,-16.3 -27.69,-19.69 -6.77,-3.38 -9.02,-0.92 -8.31,3.69 0.72,4.62 4.41,11.38 9.84,19.28 5.43,7.9 12.61,16.92 15.38,21.53 2.77,4.61 1.13,4.82 -1.85,2.97 -2.97,-1.85 -7.28,-5.74 -10.87,-9.23 -3.59,-3.48 -6.46,-6.55 -9.43,-11.11 -2.97,-4.55 -6.05,-10.59 -8.1,-12.84 -2.05,-2.26 -3.08,-0.74 -3.49,4.22 -0.41,4.96 -0.2,13.37 1.44,20.75 1.64,7.38 4.72,13.74 6.77,17.84 2.05,4.1 3.08,5.95 1.85,6.87 -1.23,0.92 -4.72,0.92 -9.84,0.62 -5.13,-0.31 -11.89,-0.92 -18.28,-2.46 -6.38,-1.54 -12.38,-4 -15.38,-3.69 -3,0.31 -3,3.38 0.72,6.46 3.72,3.08 11.15,6.15 16.71,8.61 5.56,2.46 9.25,4.31 8.95,5.54 -0.31,1.23 -4.61,1.85 -9.33,2.67 -4.72,0.82 -9.84,1.85 -12.2,4 -2.36,2.15 -1.95,5.43 0,8.72 1.95,3.28 5.43,6.56 5.54,9.64 0.1,3.08 -3.18,5.95 -9.23,8.61 -6.05,2.67 -14.87,5.13 -17.02,8 -2.15,2.87 2.36,6.15 7.38,8.82 5.02,2.67 10.56,4.72 14.56,5.84 4,1.13 6.46,1.33 5.85,4 -0.62,2.67 -4.31,7.79 -4.62,10.97 -0.31,3.18 2.77,4.41 4,6.15 1.23,1.74 0.62,4 0.41,6.56 -0.21,2.56 -0,5.44 1.43,7.18 1.44,1.74 4.1,2.36 4.61,4 0.51,1.64 -1.13,4.31 -0.72,7.49 0.41,3.18 2.87,6.87 5.74,8.72 2.87,1.85 6.15,1.85 8.1,3.79 1.95,1.95 2.56,5.84 4.92,6.77 2.36,0.92 6.46,-1.13 8.51,-0.33 2.05,0.8 2.05,4.44 4.31,6.9 2.26,2.46 6.77,3.74 9.43,3.74 2.67,0 3.49,-1.28 4.82,-1.92 1.33,-0.64 3.18,-0.64 4.51,1.85 1.33,2.49 2.15,7.46 3.69,9.3 1.54,1.84 3.79,0.56 6.36,1.79 2.56,1.23 5.43,4.98 8.31,4.98 2.87,0 5.74,-3.75 7.59,-0.98 1.85,2.77 2.67,12.05 5.74,16.49 3.08,4.44 8.41,4.03 11.38,2.8 2.97,-1.23 3.59,-3.28 4.72,-4.31 1.13,-1.02 2.77,-1.02 3.69,1.03 0.92,2.05 1.13,6.15 3.28,6.67 2.15,0.51 6.25,-2.56 9.13,-2.15 2.87,0.41 4.51,4.31 7.08,2.26 2.56,-2.05 6.05,-10.05 9.02,-17.12 2.97,-7.07 5.43,-13.23 7.69,-15.1 2.26,-1.87 4.31,0.53 6.87,3.61 2.56,3.08 5.64,6.82 7.79,6.82 2.15,0 3.38,-3.75 5.43,-7.85 2.05,-4.1 4.92,-8.56 7.08,-16.02 2.15,-7.46 3.59,-17.92 1.85,-25.2 -1.74,-7.28 -6.66,-11.38 -7.18,-12.51 -0.51,-1.13 3.38,0.72 6.66,3.49 3.28,2.77 5.95,6.46 6.46,11.48 0.51,5.03 -1.13,11.38 -2.26,17.12 -1.13,5.74 -1.74,10.87 2.98,17.84 4.72,6.97 14.76,15.79 21.94,14.95 7.18,-0.85 11.48,-11.36 13.43,-22.94 1.95,-11.59 1.54,-24.25 1.23,-32.63 -0.31,-8.38 -0.51,-12.48 2.46,-11.66 2.97,0.82 9.13,6.56 15.69,11.48 6.56,4.92 13.53,9.02 18.15,9.84 4.62,0.82 6.87,-1.64 6.77,-4.82 -0.1,-3.18 -2.56,-7.07 -4.2,-11.69 -1.64,-4.61 -2.46,-9.95 -2.46,-13.95 0,-4 0.82,-6.66 4.41,-6.56 3.59,0.1 9.95,2.98 18.25,4 8.31,1.03 18.56,0.2 23.07,-2.36 4.51,-2.56 3.28,-6.87 -0.51,-12.92 -3.79,-6.05 -10.15,-13.84 -14.77,-18.56 -4.61,-4.72 -7.49,-6.36 -8,-8.1 -0.51,-1.74 1.33,-3.59 2.98,-6.77 1.64,-3.18 3.08,-7.69 3.59,-13.02 0.51,-5.33 0.1,-11.49 -0.82,-17.33 -0.92,-5.84 -2.36,-11.38 -3.59,-17.53 -1.23,-6.15 -2.26,-12.92 -5.64,-16 -3.38,-3.08 -9.13,-2.46 -10.87,-3.59 -1.74,-1.12 0.51,-3.99 2.56,-7.07 2.05,-3.08 3.9,-6.36 0.72,-8.21 -3.18,-1.85 -11.38,-2.26 -17.74,-3.63 -6.36,-1.37 -10.87,-3.71 -14.97,-6.17 -4.1,-2.46 -7.79,-5.05 -9.54,-7.98 -1.74,-2.93 -1.54,-6.21 -4.2,-6.63 -2.67,-0.41 -8.2,2.05 -13.13,4.99 -4.92,2.93 -9.23,6.34 -15.89,15.05 -6.67,8.72 -15.69,22.74 -19.22,27.29 -3.53,4.55 -1.56,-0.37 0.49,-7.38 2.05,-7.01 4.18,-16.12 4.18,-23.5 0,-7.38 -2.13,-13.04 -0.49,-18.95 1.64,-5.91 7.06,-12.06 11.1,-16.88 4.04,-4.82 6.71,-8.31 6.6,-11.28 -0.1,-2.97 -2.98,-5.43 -7.01,-3.59 -4.04,1.85 -9.25,8 -14.07,13.33 -4.82,5.33 -9.25,9.84 -11.77,7.79 -2.52,-2.05 -3.14,-10.67 -3.75,-17.33 -0.62,-6.66 -1.23,-11.38 -3.9,-12.1 -2.67,-0.72 -7.38,2.56 -12,8.51 -4.61,5.95 -9.13,14.56 -13.02,21.12 -3.9,6.56 -7.18,11.08 -8.82,10.46 -1.64,-0.62 -1.64,-6.36 -3.08,-12 -1.44,-5.64 -4.31,-11.18 -5.54,-18.97 -1.23,-7.79 -0.82,-17.84 -2.26,-18.66 -1.44,-0.82 -4.72,7.59 -9.23,12.51 -4.51,4.92 -10.25,6.36 -10.77,13.02 -0.51,6.67 4.2,18.56 6.15,30.66 1.95,12.1 1.13,24.4 -3.28,28.1z"/>
    <path class="fil9 str0" d="M2448.87 825.09c0.62,5.55 4.56,18.13 6.29,35.65 1.73,17.52 1.23,39.96 0.86,56.61 -0.37,16.65 -0.62,27.51 -4.56,34.41 -3.95,6.91 -11.59,9.87 -14.18,14.55 -2.59,4.69 -0.12,11.1 -7.52,20.6 -7.39,9.5 -24.65,22.08 -38.22,45.64 -13.57,23.56 -23.45,58.1 -28.51,82.64 -5.06,24.55 -5.31,39.1 -0.37,49.21 4.94,10.11 15.07,15.79 16.92,21.77 1.85,5.98 -4.58,12.27 -12.23,21.52 -7.65,9.25 -16.53,21.46 -22.58,33.22 -6.04,11.75 -9.25,23.05 -15.29,31.93 -6.04,8.88 -14.92,15.35 -22.45,23.39 -7.52,8.04 -13.69,17.66 -18.13,29.13 -4.44,11.47 -7.15,24.79 -4.56,30.34 2.59,5.55 10.48,3.33 23.31,-3.08 12.83,-6.41 30.59,-17.02 40.83,-19.12 10.24,-2.1 12.95,4.32 20.23,6.54 7.28,2.22 19.12,0.25 26.52,-2.47 7.4,-2.71 10.36,-6.17 12.83,-6.17 2.47,0 4.44,3.45 15.91,4.44 11.47,0.99 32.44,-0.49 45.27,-5.92 12.83,-5.43 17.52,-14.8 20.6,-17.51 3.08,-2.71 4.56,1.23 5.67,5.18 1.11,3.95 1.85,7.89 9,5.8 7.15,-2.1 20.72,-10.24 32.44,-13.07 11.72,-2.84 21.59,-0.37 31.82,1.23 10.24,1.6 20.85,2.34 27.75,-0.25 6.91,-2.59 10.11,-8.51 18.75,-15.07 8.63,-6.56 22.7,-13.77 34.66,-23.14 11.96,-9.37 21.83,-20.92 24.54,-32.67 2.71,-11.75 -1.73,-23.72 -7.77,-31.86 -6.04,-8.14 -13.69,-12.45 -16.16,-16.71 -2.47,-4.25 0.25,-8.45 4.69,-10.55 4.44,-2.1 10.61,-2.1 18.01,-7.28 7.4,-5.18 16.03,-15.54 19.24,-26.03 3.21,-10.48 0.99,-21.09 2.47,-27.51 1.48,-6.41 6.66,-8.63 9.99,-14.92 3.33,-6.29 4.81,-16.65 3.33,-25.9 -1.48,-9.25 -5.92,-17.39 -7.89,-22.7 -1.97,-5.3 -1.48,-7.77 1.6,-11.1 3.08,-3.33 8.76,-7.52 11.35,-13.07 2.59,-5.55 2.1,-12.46 0.86,-16.77 -1.23,-4.32 -3.21,-6.04 -4.81,-9.13 -1.6,-3.08 -2.84,-7.52 -8.88,-9.99 -6.04,-2.47 -16.9,-2.96 -27.38,-0.99 -10.48,1.97 -20.6,6.41 -25.16,6.41 -4.56,0 -3.58,-4.44 -1.6,-9.62 1.97,-5.18 4.93,-11.1 6.04,-16.77 1.11,-5.67 0.37,-11.1 -2.47,-16.16 -2.84,-5.06 -7.77,-9.74 -11.72,-11.84 -3.95,-2.1 -6.91,-1.6 -8.63,-3.33 -1.73,-1.73 -2.22,-5.67 -4.32,-11.47 -2.1,-5.8 -5.8,-13.44 -11.96,-17.14 -6.17,-3.7 -14.8,-3.45 -18.01,-5.92 -3.21,-2.47 -0.99,-7.65 -2.84,-10.85 -1.85,-3.21 -7.77,-4.44 -15.91,-5.06 -8.14,-0.62 -18.5,-0.62 -24.79,-2.84 -6.29,-2.22 -8.51,-6.66 -9.13,-12.58 -0.62,-5.92 0.37,-13.32 -0.12,-18.63 -0.49,-5.3 -2.47,-8.51 -6.66,-7.65 -4.19,0.86 -10.61,5.8 -19.24,14.31 -8.63,8.51 -19.49,20.6 -26.27,23.43 -6.78,2.84 -9.5,-3.58 -13.2,-14.18 -3.7,-10.61 -8.39,-25.41 -12.46,-35.03 -4.07,-9.62 -7.52,-14.06 -10.61,-17.02 -3.08,-2.96 -5.8,-4.44 -5.18,1.11z"/>
    <path class="fil9 str0" d="M7.18 625.64c-3.72,8.42 -3.72,19.09 1.79,32.5 5.5,13.42 16.51,29.59 20.99,44.38 4.47,14.79 2.41,28.21 -1.38,38.53 -3.79,10.32 -9.29,17.55 -14.79,25.8 -5.5,8.26 -11.01,17.54 -12.56,30.1 -1.55,12.56 0.86,28.38 3.1,40.77 2.24,12.39 4.3,21.33 8.6,27.18 4.3,5.85 10.84,8.6 17.72,14.28 6.88,5.68 14.1,14.28 19.95,18.58 5.85,4.3 10.32,4.3 9.29,11.87 -1.03,7.57 -7.57,22.71 -12.73,37.16 -5.16,14.45 -8.95,28.21 -7.91,46.14 1.03,17.93 6.88,40.02 15.48,51.07 8.6,11.05 19.95,11.05 29.07,6.71 9.12,-4.34 16,-13.02 21.67,-13.02 5.68,0 10.15,8.68 18.23,11.6 8.08,2.93 19.78,0.09 30.77,-2.33 10.98,-2.42 21.26,-4.43 32.09,-13.21 10.84,-8.77 22.24,-24.3 31.21,-32.93 8.97,-8.63 15.51,-10.35 22.56,-12.75 7.05,-2.41 14.62,-5.5 24.45,-6.65 9.83,-1.14 21.92,-0.34 29.65,-7.54 7.72,-7.2 11.08,-22.4 12.87,-34.7 1.79,-12.3 2.01,-21.69 0.22,-32.31 -1.79,-10.62 -5.59,-22.47 -9.5,-32.98 -3.91,-10.51 -7.94,-19.68 -5.82,-27.51 2.12,-7.83 10.4,-14.31 14.65,-24.82 4.25,-10.51 4.47,-25.05 2.01,-35.11 -2.46,-10.06 -7.6,-15.65 -9.62,-19.68 -2.01,-4.02 -0.89,-6.48 0.33,-11.18 1.23,-4.7 2.57,-11.63 0.89,-15.32 -1.68,-3.69 -6.37,-4.14 -11.18,-7.38 -4.81,-3.24 -9.73,-9.28 -15.1,-18.78 -5.37,-9.5 -11.18,-22.48 -18.11,-31.31 -6.93,-8.83 -14.98,-13.53 -21.13,-14.42 -6.15,-0.89 -10.4,2.01 -12.86,-3.24 -2.46,-5.26 -3.13,-18.67 -6.26,-28.51 -3.13,-9.84 -8.72,-16.1 -17.67,-19.68 -8.94,-3.58 -21.24,-4.47 -28.06,-2.57 -6.82,1.9 -8.16,6.6 -10.73,7.83 -2.57,1.23 -6.37,-1.01 -11.63,-6.82 -5.26,-5.81 -11.96,-15.21 -19.79,-19.79 -7.83,-4.58 -16.77,-4.36 -24.93,-0.45 -8.16,3.91 -15.54,11.52 -21.47,11.85 -5.93,0.34 -10.4,-6.6 -17.56,-10.29 -7.16,-3.69 -17,-4.14 -23.82,-2.24 -6.82,1.9 -10.62,6.15 -16.24,11.36 -5.62,5.21 -13.05,11.39 -16.76,19.81z"/>
    <path class="fil10 str0" d="M436.15 506.89c-6.67,-0.21 -15.83,-6.08 -23.59,-5.11 -7.76,0.97 -14.13,8.76 -20.33,12.52 -6.2,3.76 -12.24,3.48 -18.49,5.87 -6.25,2.39 -12.71,7.44 -15.19,13.11 -2.49,5.67 -1.01,11.95 -2.75,15.09 -1.75,3.14 -6.72,3.14 -10.04,6.04 -3.32,2.9 -4.98,8.71 -8.16,11.75 -3.18,3.04 -7.88,3.32 -12.66,5.13 -4.78,1.82 -9.64,5.17 -10.14,12 -0.5,6.83 3.35,17.14 3.35,22.29 0,5.15 -3.86,5.15 -8.49,9.35 -4.63,4.2 -10.04,12.59 -10.04,20.97 0,8.38 5.41,16.73 11.92,21.74 6.51,5.01 14.14,6.67 19.61,8.88 5.47,2.21 8.79,4.98 7.68,8.16 -1.11,3.18 -6.64,6.77 -7.6,14.93 -0.97,8.16 2.63,20.87 8.85,30.14 6.22,9.26 15.07,15.07 21.29,16.45 6.22,1.38 9.81,-1.66 14.49,-1.66 4.68,0 10.44,3.04 14.86,6.22 4.42,3.18 7.51,6.51 10.77,8.17 3.26,1.66 6.69,1.66 9.18,4.84 2.49,3.17 4.03,9.53 7.85,17.26 3.81,7.74 9.9,16.86 13.21,24.74 3.32,7.88 3.87,14.52 5.67,17.42 1.8,2.9 4.84,2.07 8.57,-1.8 3.73,-3.87 8.16,-10.78 10.78,-12.44 2.63,-1.66 3.46,1.93 8.02,3.87 4.56,1.94 12.86,2.21 18.8,2.63 5.94,0.42 9.54,0.97 12.58,3.88 3.04,2.91 5.53,8.18 12.99,11.64 7.46,3.46 19.9,5.1 28.06,7.99 8.16,2.89 12.03,7.04 18.66,7.91 6.63,0.86 16.03,-1.55 21.29,-4.45 5.25,-2.89 6.36,-6.26 10.64,-7.95 4.29,-1.68 11.75,-1.68 19.06,-0.98 7.3,0.71 14.45,2.12 17.79,-0.38 3.34,-2.5 2.87,-8.9 2.63,-12.8 -0.23,-3.89 -0.23,-5.28 2.92,-5.97 3.16,-0.69 9.48,-0.69 14.3,-3.04 4.82,-2.35 8.14,-7.05 11.18,-9.54 3.04,-2.49 5.81,-2.76 9.54,-4.7 3.73,-1.94 8.43,-5.54 12.72,-10.66 4.28,-5.12 8.16,-11.74 8.43,-16.29 0.28,-4.55 -3.04,-7.03 -3.18,-10.08 -0.14,-3.04 2.9,-6.64 5.67,-11.49 2.76,-4.84 5.25,-10.92 5.81,-17.56 0.55,-6.64 -0.83,-13.82 -4.56,-20.46 -3.73,-6.64 -9.81,-12.72 -11.89,-16.45 -2.07,-3.73 -0.14,-5.12 2.49,-9.12 2.63,-4.01 5.94,-10.65 6.08,-21.78 0.14,-11.14 -2.9,-26.78 -6.08,-36.32 -3.18,-9.54 -6.5,-12.97 -13.41,-12.97 -6.91,0 -17.42,3.43 -24.72,5.15 -7.31,1.71 -11.41,1.71 -15.97,-0.55 -4.56,-2.27 -9.58,-6.81 -14.44,-12.23 -4.86,-5.42 -9.56,-11.72 -12.18,-19.33 -2.63,-7.6 -3.18,-16.5 -3.73,-25.1 -0.55,-8.6 -1.11,-16.89 -4.98,-21.73 -3.87,-4.84 -11.06,-6.22 -16.59,-3.46 -5.53,2.76 -9.4,9.68 -14.79,10.23 -5.39,0.55 -12.3,-5.25 -20.4,-8.3 -8.1,-3.04 -17.39,-3.32 -23.34,-6.08 -5.95,-2.77 -8.54,-8.02 -15.64,-8.99 -7.1,-0.97 -18.71,2.35 -27.69,0.19 -8.97,-2.16 -15.3,-9.81 -20.56,-10.92 -5.25,-1.11 -9.43,4.33 -16.1,4.11z"/>
    <path class="fil0 str0" d="M261.54 1247.21c-1.54,2.3 -10.13,1.54 -20.19,-2.84 -10.06,-4.38 -21.57,-12.36 -28.33,-15.2 -6.75,-2.84 -8.75,-0.54 -4.22,5.68 4.53,6.22 15.58,16.35 19.34,22.19 3.76,5.83 0.23,7.37 -6.29,7.68 -6.53,0.31 -16.04,-0.61 -17.96,1.69 -1.92,2.3 3.76,7.83 8.37,12.74 4.61,4.91 8.14,9.21 3.22,11.67 -4.91,2.46 -18.27,3.07 -27.56,3.76 -9.29,0.69 -14.51,1.46 -13.89,3.99 0.61,2.53 7.06,6.83 13.82,11.44 6.76,4.61 13.82,9.52 15.43,12.82 1.61,3.3 -2.23,4.99 -4.76,8.21 -2.53,3.22 -3.76,7.98 -1.84,11.28 1.92,3.3 6.99,5.14 7.98,6.76 1,1.61 -2.07,2.99 -5.76,4.83 -3.69,1.84 -7.98,4.15 -7.29,7.14 0.69,2.99 6.37,6.68 7.83,9.29 1.46,2.61 -1.31,4.14 -1.46,6.6 -0.15,2.46 2.3,5.83 4.84,9.36 2.53,3.53 5.14,7.22 9.21,9.83 4.07,2.61 9.59,4.15 12.74,7.6 3.15,3.46 3.92,8.83 6.99,11.21 3.07,2.38 8.44,1.77 11.21,3.84 2.76,2.07 2.92,6.83 5.14,11.75 2.23,4.91 6.53,9.98 10.98,11.44 4.45,1.46 9.06,-0.69 11.13,0.61 2.07,1.31 1.61,6.07 1.69,12.22 0.08,6.16 0.69,13.71 4.38,16.4 3.68,2.69 10.44,0.51 16.35,-0.51 5.91,-1.01 10.98,-0.86 15.51,1.37 4.53,2.23 8.52,6.52 17.04,5.45 8.52,-1.07 21.57,-7.52 31.86,-15.35 10.29,-7.83 17.81,-17.04 20.8,-17.81 2.99,-0.77 1.46,6.91 2.69,12.28 1.23,5.37 5.22,8.44 10.82,13.51 5.6,5.07 12.82,12.13 17.66,11.44 4.84,-0.69 7.29,-9.14 11.36,-19.96 4.07,-10.82 9.75,-24.03 12.51,-34.39 2.76,-10.36 2.61,-17.89 -0.46,-26.48 -3.07,-8.6 -9.06,-18.27 -8.14,-18.73 0.92,-0.46 8.75,8.29 15.66,18.88 6.91,10.59 12.9,23.03 19.27,30.48 6.37,7.45 13.13,9.9 16.5,8.29 3.38,-1.61 3.38,-7.29 1.38,-13.51 -2,-6.22 -5.99,-12.97 -9.14,-17.88 -3.15,-4.91 -5.45,-7.98 -4.53,-7.83 0.92,0.15 5.07,3.53 9.6,3.53 4.53,0 9.44,-3.38 19.04,-0.54 9.6,2.84 23.87,11.9 31.93,13.89 8.06,2 9.9,-3.07 9.29,-7.98 -0.61,-4.91 -3.68,-9.67 -5.14,-15.35 -1.46,-5.68 -1.3,-12.28 -2.76,-16.66 -1.46,-4.38 -4.53,-6.52 -6.37,-8.83 -1.84,-2.3 -2.46,-4.76 -0.54,-6.99 1.92,-2.23 6.37,-4.22 9.13,-7.6 2.76,-3.38 3.84,-8.14 4.91,-11.9 1.07,-3.76 2.15,-6.53 2.3,-10.13 0.15,-3.61 -0.61,-8.06 -1,-13.51 -0.38,-5.45 -0.38,-11.9 -1.08,-17.66 -0.69,-5.76 -2.07,-10.82 -5.07,-13.66 -2.99,-2.84 -7.6,-3.45 -8.14,-4.76 -0.54,-1.31 2.99,-3.3 4.83,-6.37 1.84,-3.07 2,-7.22 0.69,-10.13 -1.31,-2.92 -4.07,-4.61 -7.68,-5.14 -3.61,-0.54 -8.06,0.08 -9.44,-0.46 -1.38,-0.54 0.31,-2.23 0.08,-3.61 -0.23,-1.38 -2.38,-2.46 -5.3,-4.38 -2.92,-1.92 -6.6,-4.68 -8.67,-7.98 -2.07,-3.3 -2.53,-7.14 -1.84,-10.59 0.69,-3.45 2.53,-6.52 3.15,-9.13 0.61,-2.61 0,-4.76 -1.84,-4.22 -1.84,0.54 -4.91,3.76 -9.14,5.22 -4.22,1.46 -9.6,1.15 -15.97,3.3 -6.37,2.15 -13.74,6.76 -18.81,9.06 -5.07,2.3 -7.83,2.3 -8.6,-1.77 -0.77,-4.07 0.46,-12.21 3.22,-17.89 2.76,-5.68 7.06,-8.9 11.67,-11.9 4.61,-2.99 9.52,-5.76 11.21,-10.59 1.69,-4.83 0.15,-11.74 -3.15,-15.51 -3.3,-3.76 -8.37,-4.38 -15.12,-1.15 -6.76,3.22 -15.2,10.29 -20.34,13.51 -5.14,3.22 -6.98,2.61 -7.22,0.46 -0.23,-2.15 1.15,-5.83 2.46,-9.98 1.3,-4.15 2.53,-8.75 2.53,-12.67 0,-3.91 -1.23,-7.14 -5.07,-7.83 -3.84,-0.69 -10.29,1.15 -15.97,3.99 -5.68,2.84 -10.59,6.68 -14.66,11.82 -4.07,5.14 -7.29,11.59 -10.21,13.66 -2.92,2.07 -5.53,-0.23 -6.99,-5.45 -1.46,-5.22 -1.77,-13.36 -2,-21.65 -0.23,-8.29 -0.38,-16.73 -2,-19.81 -1.61,-3.07 -4.68,-0.77 -7.68,2.46 -2.99,3.22 -5.91,7.37 -8.52,8.6 -2.61,1.23 -4.91,-0.46 -7.98,-0.92 -3.07,-0.46 -6.91,0.31 -7.68,4.68 -0.77,4.38 1.53,12.36 2.07,23.18 0.54,10.82 -0.69,24.49 -2.07,33.09 -1.38,8.6 -2.92,12.13 -4.91,13.43 -2,1.31 -4.45,0.38 -8.52,-3.07 -4.07,-3.45 -9.75,-9.44 -14.66,-15.51 -4.91,-6.06 -9.06,-12.21 -12.82,-17.96 -3.76,-5.76 -7.14,-11.13 -8.83,-14.97 -1.69,-3.84 -1.69,-6.14 -4.15,-7.22 -2.46,-1.07 -7.37,-0.92 -9.44,4.76 -2.07,5.68 -1.31,16.89 -2.76,20.34 -1.46,3.46 -5.14,-0.84 -8.21,0 -3.07,0.84 -5.53,6.83 -7.29,14.05 -1.77,7.22 -2.84,15.66 -0.61,22.57 2.23,6.91 7.75,12.28 6.22,14.58z"/>
    <path class="fil10 str0" d="M1235.8 1992.74c-1.92,-3.3 -9.3,-6.6 -13.27,-13.2 -3.96,-6.6 -4.51,-16.5 -6.44,-22.41 -1.93,-5.91 -5.22,-7.83 -6.05,-11.93 -0.82,-4.09 0.82,-10.35 4.12,-14.48 3.3,-4.12 8.25,-6.11 10.17,-9.17 1.92,-3.06 0.82,-7.18 -1.24,-9.24 -2.06,-2.06 -5.09,-2.06 -5.09,-3.85 0,-1.79 3.03,-5.36 4.81,-11 1.79,-5.64 2.34,-13.33 3.99,-19.11 1.65,-5.77 4.4,-9.62 12.51,-11.41 8.11,-1.79 21.58,-1.51 27.91,-8.52 6.32,-7.01 5.5,-21.31 8.11,-30.11 2.61,-8.8 8.66,-12.1 13.2,-13.06 4.54,-0.96 7.56,0.41 12.24,-2.22 4.67,-2.64 11,-9.29 15.7,-10.8 4.7,-1.51 7.77,2.11 10.38,-2.81 2.61,-4.92 4.76,-18.4 13.4,-21.83 8.64,-3.44 23.76,3.16 35.03,2.75 11.27,-0.41 18.7,-7.84 26.81,-11 8.11,-3.16 16.91,-2.06 21.86,2.48 4.95,4.54 6.05,12.51 11.69,15.81 5.64,3.3 15.81,1.93 26.95,5.91 11.13,3.99 23.23,13.33 28.87,21.58 5.64,8.25 4.81,15.4 7.56,21.45 2.75,6.05 9.07,11 16.08,15.95 7.01,4.95 14.71,9.9 18.28,18.15 3.57,8.25 3.03,19.8 4.81,31.76 1.79,11.96 5.91,24.33 3.99,32.72 -1.92,8.39 -9.9,12.79 -13.06,20.35 -3.16,7.56 -1.51,18.28 -6.6,25.57 -5.09,7.29 -16.91,11.14 -21.45,22.55 -4.54,11.41 -1.79,30.38 -7.42,40.14 -5.64,9.76 -19.66,10.31 -26.39,16.63 -6.74,6.32 -6.19,18.42 -13.2,28.74 -7.01,10.32 -21.58,18.87 -36.57,19.7 -14.98,0.82 -30.38,-6.07 -44.4,-7.05 -14.02,-0.97 -26.67,3.97 -36.43,4.39 -9.76,0.41 -16.63,-3.71 -22.68,-5.36 -6.05,-1.65 -11.27,-0.82 -18.83,-6.05 -7.56,-5.22 -17.46,-16.5 -29.83,-19.38 -12.37,-2.89 -27.22,2.61 -38.22,-4.67 -11,-7.29 -18.15,-27.36 -16.91,-40.83 1.24,-13.47 10.86,-20.35 17.44,-25.43 6.58,-5.09 10.1,-8.39 8.18,-11.68z"/>
    <path class="fil8 str0" d="M613.31 1689.7c-4.45,0.78 -10.6,-2.19 -18.65,-2.83 -8.05,-0.63 -18.01,1.06 -25.43,3.92 -7.42,2.86 -12.29,6.89 -17.27,8.27 -4.98,1.38 -10.07,0.1 -11.98,2.54 -1.91,2.44 -0.63,8.58 -0.95,12.5 -0.32,3.92 -2.23,5.62 -7.1,6.04 -4.88,0.42 -12.72,-0.42 -16.53,3.71 -3.82,4.13 -3.6,13.24 -5.72,18.23 -2.12,4.98 -6.57,5.83 -11.66,5.83 -5.09,0 -10.81,-0.85 -13.78,1.59 -2.97,2.44 -3.18,8.16 -4.98,11.34 -1.8,3.18 -5.19,3.81 -12.4,3.92 -7.21,0.11 -18.23,-0.32 -29.29,0.37 -11.06,0.69 -22.16,2.49 -28.72,7.37 -6.56,4.87 -8.57,12.82 -15.64,14.01 -7.06,1.19 -19.17,-4.37 -26.8,2.15 -7.63,6.52 -10.78,25.13 -16.64,32.86 -5.87,7.73 -14.46,4.58 -20.61,6.32 -6.16,1.74 -9.89,8.38 -10.37,16.04 -0.49,7.66 2.27,16.35 1.21,22.6 -1.06,6.25 -5.93,10.07 -3.6,17.8 2.33,7.74 11.87,19.39 14.94,25.75 3.07,6.36 -0.32,7.42 -4.13,11.45 -3.81,4.03 -8.05,11.02 -6.36,18.86 1.7,7.84 9.32,16.53 17.7,19.82 8.37,3.29 17.48,1.17 19.5,3.28 2.01,2.12 -3.07,8.48 -6.36,14.41 -3.29,5.93 -4.77,11.44 -3.71,17.59 1.06,6.15 4.66,12.93 10.49,25.01 5.83,12.08 13.88,29.46 23.21,38.15 9.32,8.69 19.92,8.69 29.99,11.76 10.07,3.07 19.6,9.22 31.15,15.15 11.55,5.93 25.11,11.66 41.01,14.2 15.89,2.54 34.12,1.91 44.78,-0.74 10.65,-2.65 13.74,-7.31 15.96,-13.25 2.23,-5.93 3.59,-13.14 5.23,-16.74 1.64,-3.6 3.55,-3.6 6.62,-5.94 3.07,-2.33 7.31,-6.99 9.64,-12.19 2.33,-5.19 2.75,-10.91 2.33,-16.21 -0.42,-5.3 -1.7,-10.17 -0.32,-12.4 1.38,-2.22 5.4,-1.8 7.42,0.95 2.01,2.76 2.01,7.84 2.97,14.31 0.95,6.46 2.86,14.31 6.57,15.47 3.71,1.17 9.22,-4.34 12.61,-8.69 3.39,-4.34 4.66,-7.52 11.66,-9.22 6.99,-1.7 19.71,-1.91 29.14,-2.76 9.43,-0.85 15.58,-2.33 21.1,-1.48 5.52,0.85 10.41,4.03 14.97,4.87 4.56,0.85 8.78,-0.64 13.85,-4.03 5.08,-3.39 11.01,-8.69 15.89,-11.34 4.87,-2.65 8.69,-2.65 12.82,-3.82 4.13,-1.16 8.58,-3.5 13.22,-6.76 4.64,-3.26 9.47,-7.45 13.82,-7.77 4.34,-0.32 8.2,3.24 12.68,1.3 4.47,-1.93 9.56,-9.35 14.12,-14.44 4.56,-5.09 8.58,-7.84 16.64,-12.79 8.05,-4.95 20.13,-12.1 26.38,-21.53 6.25,-9.43 6.68,-21.14 1.37,-31.67 -5.31,-10.53 -16.34,-19.87 -15.81,-26.13 0.53,-6.26 12.64,-9.45 19.22,-17.84 6.58,-8.39 7.64,-21.98 6.37,-31.61 -1.27,-9.63 -4.88,-15.3 -7.33,-23.01 -2.44,-7.71 -3.71,-17.45 -9.96,-23.7 -6.25,-6.25 -17.48,-9.02 -29.03,-13.9 -11.55,-4.88 -23.42,-11.87 -32.74,-15.47 -9.32,-3.6 -16.11,-3.82 -19.92,-5.3 -3.81,-1.48 -4.66,-4.24 -3.81,-8.69 0.85,-4.45 3.39,-10.6 3.18,-15.05 -0.21,-4.45 -3.18,-7.21 -4.77,-11.23 -1.59,-4.03 -1.8,-9.32 -3.28,-14.94 -1.48,-5.62 -4.24,-11.55 -8.58,-16.64 -4.34,-5.09 -10.28,-9.32 -15.47,-10.49 -5.19,-1.17 -9.64,0.74 -11.87,-0.25 -2.23,-0.99 -2.23,-4.87 -5.09,-9.54 -2.86,-4.66 -8.58,-10.1 -17.91,-10.1 -9.32,0 -22.25,5.44 -30.09,10.42 -7.84,4.98 -10.6,9.5 -15.05,10.28z"/>
    <path class="fil8 str0" d="M1761.2 1574.82c-4.8,0.61 -8.86,7.86 -13.96,8.87 -5.1,1 -11.23,-4.25 -17,-8.22 -5.77,-3.97 -11.19,-6.65 -17.5,-9.62 -6.31,-2.97 -13.53,-6.21 -20.02,-6.03 -6.49,0.18 -12.25,3.79 -16.61,3.43 -4.36,-0.36 -7.33,-4.69 -8.81,-9.2 -1.48,-4.51 -1.48,-9.2 -5.96,-11.55 -4.48,-2.35 -13.43,-2.35 -21.34,-4.72 -7.91,-2.38 -14.76,-7.13 -26.49,-9.51 -11.73,-2.38 -28.33,-2.38 -40.94,5.67 -12.62,8.05 -21.25,24.15 -23.49,35 -2.24,10.86 1.92,16.47 -0.88,20.89 -2.8,4.41 -12.55,7.63 -19.32,10.31 -6.77,2.69 -10.55,4.85 -12.81,8.91 -2.25,4.05 -2.97,10 -5.77,12.17 -2.79,2.16 -7.65,0.54 -9.37,3.6 -1.71,3.06 -0.27,10.81 -1.83,17.33 -1.56,6.52 -6.13,11.8 -5.77,15.85 0.36,4.06 5.64,6.88 13.15,13.8 7.51,6.91 17.24,17.91 25.44,21.96 8.2,4.06 14.87,1.17 18.48,7.61 3.62,6.44 4.18,22.2 4.46,32.97 0.28,10.77 0.28,16.54 4.89,19.92 4.61,3.38 13.82,4.38 16.67,6.77 2.85,2.4 -0.67,6.2 -1.08,9.91 -0.42,3.71 2.27,7.33 5.97,8.35 3.7,1.01 8.42,-0.58 10.36,1.36 1.95,1.95 1.12,7.43 3.92,10.98 2.81,3.55 9.24,5.16 13.13,7.57 3.89,2.41 5.23,5.63 8.67,5.21 3.44,-0.43 8.97,-4.5 14.58,-1.2 5.61,3.31 11.3,13.99 20.67,17.57 9.37,3.58 22.43,0.05 30.57,-2.38 8.14,-2.43 11.36,-3.77 17.34,-3.63 5.98,0.14 14.72,1.76 18.34,-1.46 3.62,-3.22 2.13,-11.28 4.8,-17.12 2.67,-5.84 9.51,-9.46 12.46,-14.36 2.95,-4.9 2.01,-11.07 5.7,-13.66 3.69,-2.59 12.01,-1.61 19.18,-4.56 7.18,-2.95 13.21,-9.84 18.38,-15.56 5.16,-5.72 9.46,-10.29 15.23,-11.83 5.77,-1.54 13.01,-0.07 19.18,-2.89 6.17,-2.82 11.27,-9.93 13.42,-15.56 2.15,-5.63 1.34,-9.79 2.28,-12.88 0.94,-3.09 3.62,-5.1 5.31,-8.63 1.69,-3.53 2.38,-8.59 -0.7,-12.07 -3.08,-3.49 -9.95,-5.41 -10.85,-8.67 -0.9,-3.26 4.16,-7.86 3.35,-11.48 -0.8,-3.62 -7.47,-6.27 -11.75,-9.34 -4.27,-3.07 -6.15,-6.55 -8.63,-9.77 -2.48,-3.22 -5.57,-6.17 -5.9,-10.33 -0.34,-4.16 2.08,-9.52 4.7,-16.77 2.63,-7.25 5.47,-16.38 0.84,-21.95 -4.63,-5.57 -16.72,-7.57 -25.54,-11.59 -8.82,-4.02 -14.37,-10.07 -19.17,-9.46z"/>
    <path class="fil8 str0" d="M2245.89 517.65c-2.53,-4.51 -7.81,-15.51 -13.77,-27.05 -5.96,-11.54 -12.59,-23.63 -20.84,-25.83 -8.25,-2.2 -18.11,5.49 -24.48,12.67 -6.37,7.18 -9.26,13.87 -12.34,14.31 -3.08,0.44 -6.35,-5.37 -14.91,-10.8 -8.56,-5.44 -22.41,-10.5 -28.57,-3.35 -6.16,7.15 -4.63,26.51 -2.94,40.26 1.69,13.75 3.53,21.88 2.95,25.01 -0.58,3.13 -3.58,1.25 -9.34,2.14 -5.76,0.88 -14.28,4.53 -18.88,9.65 -4.59,5.12 -5.25,11.72 -4.26,16.78 0.99,5.06 3.63,8.58 2.64,11.88 -0.99,3.3 -5.61,6.38 -8.56,11.27 -2.95,4.89 -4.22,11.6 -8.97,15.18 -4.75,3.58 -12.97,4.04 -20.03,9.59 -7.06,5.55 -12.96,16.21 -20.54,29.24 -7.57,13.03 -16.81,28.42 -20.68,41.06 -3.87,12.64 -2.36,22.53 -7.67,29.24 -5.31,6.71 -17.44,10.24 -23.5,16.08 -6.06,5.84 -6.06,13.97 -4.6,22.77 1.46,8.8 4.38,18.26 5.07,25.41 0.69,7.15 -0.85,11.99 -1.18,16.83 -0.33,4.84 0.55,9.68 3.35,11.72 2.8,2.04 7.51,1.29 8.12,4.03 0.61,2.74 -2.87,8.99 -0.86,11.84 2.02,2.86 9.54,2.33 10.33,3.9 0.79,1.58 -5.16,5.25 -9.84,10.81 -4.68,5.56 -8.09,13 -9.8,20.25 -1.71,7.25 -1.74,14.32 2.64,17.28 4.37,2.96 13.14,1.81 18.74,2.01 5.59,0.2 8.01,1.74 4.93,6.8 -3.08,5.06 -11.66,13.64 -14.22,20.97 -2.57,7.33 0.88,13.42 6.6,17.71 5.72,4.29 13.71,6.78 24.2,4.84 10.49,-1.94 23.46,-8.32 30.83,-8.43 7.37,-0.11 9.13,6.05 10.14,13.57 1.01,7.52 1.26,16.39 11.14,22.39 9.88,6 29.37,9.12 38.26,8.54 8.89,-0.59 7.18,-4.89 6.87,-7.92 -0.31,-3.03 0.79,-4.79 2,-4.02 1.21,0.77 2.53,4.07 4.62,5.72 2.09,1.65 4.95,1.65 6.6,3.19 1.65,1.54 2.09,4.62 4.18,6.16 2.09,1.54 5.83,1.54 8.26,2.07 2.43,0.53 3.56,1.58 5.81,5.61 2.25,4.03 5.63,11.03 10.5,11.9 4.87,0.88 11.25,-4.37 16.36,-6.12 5.11,-1.75 8.96,0 15.52,0.31 6.56,0.31 15.84,-0.81 24.75,-8.26 8.92,-7.45 17.47,-21.21 22.74,-28.1 5.27,-6.88 7.25,-6.88 10.16,-5.06 2.91,1.82 6.74,5.47 11.58,5.69 4.84,0.22 10.68,-2.98 15.36,-6.79 4.68,-3.8 8.2,-8.2 13.37,-11.5 5.17,-3.3 11.99,-5.5 18.37,-9.9 6.38,-4.4 12.32,-11 17.72,-20.41 5.41,-9.41 10.28,-21.62 12.92,-30.53 2.64,-8.91 3.04,-14.51 7.54,-20.5 4.49,-5.99 13.07,-12.37 16.55,-19.52 3.48,-7.15 1.87,-15.07 3.85,-22 1.98,-6.93 7.56,-12.87 7.56,-19.36 0,-6.49 -5.58,-13.53 -3.71,-20.79 1.87,-7.26 11.18,-14.74 17.49,-21.01 6.31,-6.27 9.61,-11.33 10.15,-15.51 0.55,-4.18 -1.65,-7.48 0.99,-11.88 2.64,-4.4 10.12,-9.9 11.55,-15.51 1.43,-5.61 -3.19,-11.33 -4.95,-17.27 -1.76,-5.94 -0.66,-12.1 -0.99,-17.71 -0.33,-5.61 -2.09,-10.67 -6.27,-13.42 -4.18,-2.75 -10.78,-3.19 -13.97,-7.26 -3.19,-4.07 -2.97,-11.77 -7.15,-17.93 -4.18,-6.16 -12.76,-10.78 -15.88,-14.96 -3.12,-4.18 -0.77,-7.92 -0.88,-13.64 -0.11,-5.72 -2.68,-13.42 -2.68,-19.91 0,-6.49 2.57,-11.77 5.1,-18.81 2.53,-7.04 5.02,-15.84 4.18,-22.33 -0.84,-6.49 -5.02,-10.67 -9.52,-11.82 -4.49,-1.15 -9.3,0.72 -11.72,-0.38 -2.42,-1.1 -2.45,-5.18 -4.56,-10.84 -2.1,-5.67 -6.28,-12.93 -13.76,-14.25 -7.48,-1.32 -18.26,3.3 -33.84,3.34 -15.58,0.04 -35.96,-4.49 -46.74,-3.39 -10.78,1.1 -11.95,7.83 -12.43,12.19 -0.48,4.36 -0.26,6.34 -2.79,1.83z"/>
   </g>
  </g>
 </g>
</svg>
